<svg width="26" height="26" viewBox="0 0 26 26" fill="none" xmlns="http://www.w3.org/2000/svg">
<path fill-rule="evenodd" clip-rule="evenodd" d="M6.1074 0.0575826L6.14076 0.0597357C6.79719 0.114143 7.36732 0.440359 7.88777 0.948863C8.87682 1.91484 11.0006 4.73367 11.161 5.5008C11.3384 6.3566 11.1487 6.91244 10.5831 7.89569L10.446 8.13801C10.1864 8.61208 10.1467 8.80783 10.2271 9.03197C11.4621 12.0545 13.5695 14.1616 16.5575 15.382C16.8405 15.4845 17.0541 15.4257 17.6521 15.0827L17.9642 14.9062C18.8049 14.445 19.3378 14.2993 20.1235 14.463C20.8879 14.6231 23.7084 16.7483 24.6729 17.7361C25.1807 18.256 25.5076 18.8272 25.5645 19.5268C25.6246 21.2274 23.5495 23.6219 22.2836 24.3419C20.8441 25.3716 19.0173 25.3545 16.969 24.4012C11.6126 22.1723 3.41919 14.0312 1.23571 8.68141L1.105 8.38216C0.2759 6.40055 0.293865 4.68856 1.24397 3.39788C2.11091 1.96218 4.44833 -0.0191473 6.1074 0.0575826ZM6.00659 1.88986L5.89613 1.89553C5.0446 2.00865 3.33697 3.47878 2.76829 4.41385L2.67005 4.56004C2.18015 5.35823 2.23693 6.45438 2.91899 7.95525L3.04934 8.26038C5.249 13.1972 12.8651 20.7075 17.7079 22.7236L17.9747 22.8422C19.3758 23.4361 20.4365 23.4097 21.2952 22.8008L21.3587 22.76C21.6245 22.5754 22.2372 22.0186 22.7092 21.474C23.3722 20.709 23.7477 20.0081 23.7355 19.635C23.7223 19.4754 23.5991 19.2602 23.3619 19.0173C22.6449 18.283 20.0373 16.3182 19.7491 16.2578C19.4766 16.2011 19.2529 16.2773 18.6412 16.6292L18.3335 16.802C17.4324 17.288 16.7971 17.4186 15.8996 17.0928C12.4213 15.6731 9.95189 13.2041 8.51716 9.69079C8.17732 8.75141 8.36026 8.08679 8.95123 7.05678L9.09204 6.80905C9.36051 6.3243 9.41732 6.11864 9.36673 5.87466C9.30617 5.58489 7.34262 2.97876 6.60735 2.26064C6.36387 2.02275 6.14993 1.90034 5.98982 1.88707L6.00659 1.88986Z" fill="white"/>
</svg>
