<svg width="40" height="40" viewBox="0 0 40 40" fill="none" xmlns="http://www.w3.org/2000/svg">
<circle cx="20" cy="20" r="20" fill="#A351A3"/>
<path d="M30.9912 11.3757C30.9868 9.00632 29.5932 7.63903 27.2034 7.63757C22.4281 7.63611 17.6528 7.63611 12.8775 7.63757C10.4993 7.63903 9.1145 9.01509 9.10865 11.3932C9.10135 14.2432 9.10719 17.0918 9.10719 19.9417C9.10719 22.7917 9.10281 25.6403 9.10865 28.4902C9.11304 30.921 10.4847 32.297 12.8994 32.3C15.8721 32.3014 18.8433 32.3029 21.816 32.3C27.0997 32.2956 30.9649 28.4786 30.9897 23.2124C31.0073 19.2654 30.9985 15.3213 30.9912 11.3757ZM25.4227 30.1643C25.6082 27.9907 25.3248 26.8805 28.9037 26.6511C28.1237 28.2375 26.9769 29.3784 25.4227 30.1643ZM27.459 25.4533C25.5892 25.5964 24.3081 26.8848 24.1927 28.74C24.1051 30.1424 23.3104 30.9356 21.9007 30.9429C18.8331 30.9604 15.7669 30.9604 12.6993 30.9429C11.2502 30.9341 10.473 30.1103 10.4701 28.6495C10.4657 25.7542 10.4686 22.8575 10.4686 19.9622C10.4686 17.0669 10.4657 14.1702 10.4701 11.2749C10.4745 9.81706 11.2545 8.99756 12.7139 8.99464C17.606 8.98003 22.4997 8.98003 27.3918 8.99464C28.8438 8.99902 29.6254 9.82436 29.6268 11.2808C29.6312 15.2234 29.6297 19.1646 29.6268 23.1073C29.6268 24.6177 28.9549 25.3393 27.459 25.4533Z" fill="white"/>
<path d="M24.6527 14.49C21.5836 14.4915 18.516 14.4915 15.4469 14.49C14.9736 14.49 14.5982 14.6551 14.5938 15.1722C14.5894 15.7024 14.9692 15.8339 15.4454 15.8295C16.9559 15.8178 18.4649 15.8251 19.9753 15.8251C21.534 15.8251 23.0926 15.8178 24.6513 15.8295C25.129 15.8324 25.5073 15.701 25.5044 15.1722C25.5015 14.6565 25.126 14.49 24.6527 14.49Z" fill="white"/>
<path d="M24.5783 18.6008C21.5603 18.6038 18.5423 18.6038 15.5243 18.6008C15.0393 18.6008 14.6011 18.7133 14.5953 19.2816C14.5894 19.8688 15.0379 19.9418 15.5199 19.9389C17.0041 19.9287 18.4897 19.936 19.9739 19.936C21.5077 19.936 23.0401 19.9302 24.5739 19.9389C25.0545 19.9418 25.5059 19.8746 25.5029 19.286C25.5 18.7177 25.0647 18.5994 24.5783 18.6008Z" fill="white"/>
<path d="M21.8687 22.7099C19.7301 22.7041 17.5901 22.7055 15.4515 22.7099C14.9943 22.7114 14.5969 22.8662 14.5955 23.3906C14.594 23.9224 14.984 24.0553 15.4515 24.0524C16.5208 24.0465 17.5915 24.0509 18.6608 24.0509C19.7301 24.0509 20.8009 24.0509 21.8702 24.0509C22.3157 24.0509 22.7393 23.9808 22.7583 23.4272C22.7744 22.8428 22.3464 22.7114 21.8687 22.7099Z" fill="white"/>
</svg>
