<svg width="41" height="41" viewBox="0 0 41 41" fill="none" xmlns="http://www.w3.org/2000/svg">
<path d="M40.1575 20.0826C40.1575 8.99232 31.1691 0.00390625 20.0787 0.00390625C8.98842 0.00390625 0 8.99232 0 20.0826C0 30.1064 7.34129 38.4124 16.9414 39.9183V25.8867H11.8433V20.0826H16.9414V15.659C16.9414 10.6276 19.9376 7.84716 24.5258 7.84716C26.722 7.84716 29.0201 8.23933 29.0201 8.23933V13.1806H26.4867C23.9925 13.1806 23.216 14.7297 23.216 16.3179V20.0826H28.7847L27.8946 25.8867H23.216V39.9183C32.8162 38.4124 40.1575 30.1064 40.1575 20.0826Z" fill="#5E3A95"/>
<path d="M27.8945 25.8867L28.7847 20.0827H23.216V16.3179C23.216 14.7297 23.9925 13.1806 26.4867 13.1806H29.02V8.23933C29.02 8.23933 26.7219 7.84717 24.5258 7.84717C19.9376 7.84717 16.9414 10.6276 16.9414 15.6591V20.0827H11.8433V25.8867H16.9414V39.9183C17.9649 40.0791 19.012 40.1614 20.0787 40.1614C21.1454 40.1614 22.1925 40.0791 23.216 39.9183V25.8867H27.8945Z" fill="white"/>
</svg>
