<svg width="156" height="51" viewBox="0 0 156 51" fill="none" xmlns="http://www.w3.org/2000/svg">
<path d="M2.83855 0H153.161C154.722 0 156 1.29389 156 2.85985V47.7347C156 49.3007 154.716 50.5946 153.161 50.5946H2.83855C1.28425 50.5946 0 49.3128 0 47.7347V2.85985C0 1.28784 1.27825 0 2.83855 0Z" fill="#5E3A95"/>
<path d="M102.542 31.4825C101.804 31.4825 101.269 31.7244 100.729 31.9722V37.6073C101.245 37.6557 101.54 37.6557 102.032 37.6557C103.808 37.6557 104.054 36.8394 104.054 35.6907V33.0001C104.054 32.1597 103.772 31.4825 102.542 31.4825ZM90.7434 31.1742C89.5072 31.1742 89.2311 31.8574 89.2311 32.6978V33.1694H92.2557V32.6978C92.2557 31.8574 91.9737 31.1742 90.7434 31.1742ZM67.885 37.0329C67.885 37.704 68.1971 38.0487 68.8872 38.0487C69.6314 38.0487 70.0695 37.8068 70.6036 37.5589V36.2167H68.9832C68.2211 36.2167 67.885 36.3618 67.885 37.0329ZM114.016 31.4825C112.786 31.4825 112.36 32.1597 112.36 33.0001V36.0837C112.36 36.9241 112.786 37.6073 114.016 37.6073C115.252 37.6073 115.678 36.9241 115.678 36.0837V33.0001C115.678 32.1597 115.252 31.4825 114.016 31.4825ZM61.8359 40.4853H58.2112V31.6518H56.3928V28.6045H58.2112V26.7786C58.2112 24.2936 59.2314 22.8123 62.1419 22.8123H64.5664V25.8595H63.0541C61.9259 25.8595 61.8479 26.2828 61.8479 27.0809L61.8419 28.6045H64.5844L64.2663 31.6458H61.8419V40.4853H61.8359ZM74.2403 40.5095H71.2157L71.0896 39.7416C69.7034 40.5095 68.4731 40.6365 67.657 40.6365C65.4426 40.6365 64.2603 39.1491 64.2603 37.0813C64.2603 34.6507 65.6346 33.7801 68.1011 33.7801H70.6096V33.254C70.6096 32.0146 70.4655 31.6458 68.5692 31.6458H65.4666L65.7726 28.6045H69.1633C73.3281 28.6045 74.2403 29.9286 74.2403 33.2782V40.5095ZM84.5262 31.8695C82.6419 31.549 82.1018 31.4765 81.1956 31.4765C79.5693 31.4765 79.0772 31.8392 79.0772 33.2238V35.8539C79.0772 37.2445 79.5693 37.6073 81.1956 37.6073C82.1078 37.6073 82.6419 37.5348 84.5262 37.2083V40.183C82.8759 40.5518 81.8017 40.6485 80.8955 40.6485C77.0008 40.6485 75.4525 38.5868 75.4525 35.606V33.4717C75.4525 30.4909 77.0008 28.4231 80.8955 28.4231C81.8017 28.4231 82.8759 28.5199 84.5262 28.8947V31.8695ZM95.8804 35.6121H89.2251V35.86C89.2251 37.2506 89.7172 37.6134 91.3435 37.6134C92.8078 37.6134 93.702 37.5408 95.5804 37.2143V40.189C93.768 40.5579 92.8258 40.6546 91.0495 40.6546C87.1487 40.6546 85.6004 38.5928 85.6004 35.6121V33.1694C85.6004 30.5635 86.7467 28.4292 90.7434 28.4292C94.7402 28.4292 95.8864 30.5393 95.8864 33.1694V35.6121H95.8804ZM107.679 35.6725C107.679 38.5505 106.863 40.6485 101.906 40.6485C100.117 40.6485 99.067 40.4913 97.0926 40.183V23.7252L100.723 23.1146V28.8645C101.509 28.5743 102.518 28.4231 103.448 28.4231C107.079 28.4231 107.679 30.0616 107.679 32.6917V35.6725ZM119.315 35.733C119.315 38.2119 118.295 40.6244 114.034 40.6244C109.773 40.6244 108.729 38.2119 108.729 35.733V33.3326C108.729 30.8477 109.773 28.4352 114.034 28.4352C118.295 28.4352 119.315 30.8477 119.315 33.3326V35.733ZM130.933 35.733C130.933 38.2119 129.913 40.6244 125.652 40.6244C121.391 40.6244 120.347 38.2119 120.347 35.733V33.3326C120.347 30.8477 121.391 28.4352 125.652 28.4352C129.913 28.4352 130.933 30.8477 130.933 33.3326V35.733ZM142.863 40.4853H138.927L135.602 34.8986V40.4853H131.977V23.7252L135.602 23.1146V33.901L138.927 28.5985H142.863L139.233 34.3847L142.863 40.4853ZM125.64 31.4825C124.41 31.4825 123.984 32.1597 123.984 33.0001V36.0837C123.984 36.9241 124.416 37.6073 125.64 37.6073C126.87 37.6073 127.308 36.9241 127.308 36.0837V33.0001C127.308 32.1597 126.87 31.4825 125.64 31.4825Z" fill="white"/>
<path d="M13.3525 9.94604H40.6938C41.534 9.94604 42.2181 10.6414 42.2181 11.4818V38.9859C42.2181 39.8324 41.528 40.5217 40.6938 40.5217H13.3525C12.5124 40.5217 11.8282 39.8264 11.8282 38.9859V11.4818C11.8282 10.6353 12.5124 9.94604 13.3525 9.94604Z" fill="white"/>
<path d="M13.9528 33.9072H40.1058V38.5749H13.9528V33.9072Z" fill="#A351A3"/>
<path d="M33.8165 38.5748H29.0816V27.2926H25.949V22.9272H29.1476V18.707C29.1476 16.4154 30.9419 14.269 33.8765 14.269H38.0173V18.4591H35.2028C33.9185 18.4591 33.8945 18.6163 33.8945 19.7046L33.8825 22.9272H38.0113L37.5492 27.2926H33.8105V38.5748H33.8165Z" fill="#5E3A95"/>
<path d="M110.679 19.765V12.6728H112.54V13.0295C112.756 12.9691 112.96 12.9146 113.152 12.8663C113.512 12.7877 113.842 12.7393 114.13 12.7091C114.424 12.6849 114.676 12.6667 114.892 12.6667C115.258 12.6667 115.564 12.7272 115.816 12.83C116.074 12.9388 116.284 13.0839 116.44 13.2714C116.602 13.4588 116.722 13.6825 116.788 13.9425C116.866 14.2085 116.896 14.4867 116.896 14.789V19.7529H114.838V14.6983C114.838 14.5532 114.796 14.4443 114.712 14.3718C114.628 14.3053 114.514 14.269 114.376 14.269C114.148 14.269 113.872 14.2992 113.572 14.3657C113.272 14.4322 112.99 14.529 112.732 14.662V19.7529H110.679V19.765Z" fill="white"/>
<path d="M107.613 16.089C107.613 15.6356 107.589 15.4361 107.547 15.1579C107.505 14.8798 107.433 14.6621 107.325 14.5049C107.223 14.3538 107.085 14.251 106.911 14.1966C106.737 14.1482 106.52 14.118 106.262 14.118C106.022 14.118 105.818 14.1543 105.65 14.2268C105.482 14.3054 105.344 14.4263 105.236 14.5956C105.128 14.7649 105.05 14.9947 105.008 15.2789C104.96 15.563 104.936 15.7384 104.936 16.1556C104.936 16.609 104.96 16.9778 104.996 17.262C105.038 17.5401 105.116 17.7517 105.218 17.9029C105.32 18.0541 105.458 18.1508 105.626 18.2052C105.794 18.2475 106.01 18.2717 106.262 18.2717C106.508 18.2717 106.713 18.2415 106.881 18.1689C107.055 18.1024 107.199 17.9815 107.301 17.8183C107.409 17.649 107.487 17.4253 107.535 17.1471C107.589 16.863 107.613 16.5123 107.613 16.089ZM102.902 16.1556C102.902 15.3937 102.962 14.9463 103.088 14.4505C103.214 13.9608 103.412 13.5738 103.682 13.2897C103.952 13.0055 104.306 12.806 104.726 12.6971C105.146 12.5883 105.662 12.5278 106.268 12.5278C106.917 12.5278 107.457 12.5883 107.889 12.7032C108.321 12.8181 108.663 13.0236 108.921 13.3138C109.179 13.6041 109.365 13.991 109.479 14.4626C109.587 14.9403 109.647 15.3695 109.647 16.0951C109.647 16.8388 109.581 17.4555 109.455 17.9392C109.329 18.4289 109.131 18.8219 108.861 19.1121C108.591 19.3963 108.237 19.6019 107.811 19.7228C107.385 19.8377 106.869 19.8981 106.262 19.8981C105.614 19.8981 105.08 19.8377 104.648 19.7289C104.216 19.62 103.874 19.4205 103.61 19.1363C103.352 18.8522 103.172 18.4712 103.058 17.9996C102.956 17.5039 102.902 16.8932 102.902 16.1556Z" fill="white"/>
<path d="M97.8548 14.4867C97.5067 14.3718 97.1527 14.2871 96.7686 14.2267C96.3845 14.1662 96.0424 14.136 95.7364 14.136C95.2203 14.136 94.6562 14.1179 94.7342 14.7164C94.7462 14.8192 94.7822 14.9099 94.8422 14.9825C94.9022 15.055 94.9862 15.1215 95.0883 15.1759C95.2023 15.2364 95.3523 15.2908 95.5504 15.3392C95.9644 15.4541 96.3425 15.5508 96.6966 15.6354C97.7588 15.9015 98.4069 16.4759 98.4069 17.4977C98.4069 18.0116 98.3289 18.4288 98.1729 18.7432C98.0168 19.0576 97.8068 19.3055 97.5247 19.4869C97.2487 19.6622 96.9186 19.7771 96.5285 19.8376C96.1385 19.898 95.7064 19.9282 95.2323 19.9282C94.8122 19.9282 94.4041 19.9041 94.0141 19.8678C93.624 19.8255 93.2459 19.759 92.8738 19.6683L93.0419 18.0479C93.3779 18.1446 93.732 18.2111 94.0861 18.2595C94.4521 18.3079 94.8062 18.3321 95.1483 18.3321C95.3103 18.3321 95.4783 18.326 95.6404 18.3139C95.8024 18.3018 95.9524 18.2716 96.0785 18.2172C96.2105 18.1749 96.3185 18.1023 96.3965 18.0056C96.4745 17.9088 96.5225 17.7758 96.5225 17.6065C96.5225 17.4856 96.4985 17.3828 96.4505 17.3042C96.4025 17.2256 96.3185 17.153 96.1985 17.0986C96.0725 17.0382 95.9104 16.9898 95.7004 16.9414C95.4903 16.8991 95.2263 16.8568 94.9082 16.7963C94.3441 16.6875 93.3599 16.361 93.0779 15.7927C92.6878 15.0127 92.6698 13.7188 93.3539 13.096C93.852 12.6486 94.6562 12.5398 95.7304 12.5398C96.0665 12.5398 96.4325 12.564 96.8406 12.6244C97.2487 12.6789 97.7048 12.7937 98.0228 12.9026L97.8548 14.4867Z" fill="white"/>
<path d="M91.7636 12.6729V19.759H89.9032V19.4688C89.8432 19.4869 89.7892 19.5051 89.7352 19.5171C89.3991 19.6018 89.0751 19.6623 88.763 19.7046C88.4509 19.7469 88.1629 19.765 87.8988 19.765C87.4787 19.765 87.1247 19.7167 86.8366 19.6078C86.5546 19.5051 86.3205 19.3599 86.1465 19.1665C85.9725 18.973 85.8464 18.7493 85.7684 18.4893C85.6964 18.2293 85.6604 17.9512 85.6604 17.6428V12.6789H87.7188V17.7335C87.7188 17.8786 87.7668 17.9875 87.8628 18.054C87.9588 18.1144 88.0669 18.1507 88.1869 18.1507C88.4329 18.1507 88.685 18.1265 88.949 18.06C89.2191 17.9996 89.4651 17.9149 89.6992 17.8V12.6789H91.7636V12.6729Z" fill="white"/>
<path d="M80.6075 19.7651H78.7412V19.5595C78.2731 19.6986 77.733 19.7651 77.1328 19.7651C76.5567 19.7651 76.0886 19.6804 75.7346 19.5051C75.3805 19.3297 75.1045 19.0879 74.9124 18.7614C74.7144 18.441 74.5884 18.048 74.5163 17.5884C74.4443 17.135 74.4083 16.8085 74.4083 16.2462C74.4083 15.5932 74.4503 15.3513 74.5284 14.8677C74.6064 14.384 74.7444 13.9789 74.9484 13.6524C75.1525 13.3259 75.4225 13.078 75.7646 12.9208C76.1067 12.7575 76.5387 12.6789 77.0608 12.6789C77.3909 12.6789 77.673 12.7031 77.907 12.7454C78.147 12.7878 78.3631 12.8482 78.5611 12.9268V10.2846L80.5955 9.94604C80.6075 13.217 80.6075 16.4941 80.6075 19.7651ZM77.2949 18.1447C77.5529 18.1447 77.799 18.0963 78.039 17.9996C78.2731 17.9028 78.4531 17.7698 78.5791 17.6005V14.5412C78.2791 14.3658 77.955 14.2751 77.6069 14.2751C77.3549 14.2751 77.1569 14.3174 77.0128 14.4021C76.8688 14.4807 76.7488 14.6137 76.6648 14.789C76.5867 14.9704 76.5327 15.2002 76.5027 15.4844C76.4787 15.7746 76.4667 15.7927 76.4667 16.2099C76.4667 16.9475 76.5147 17.2982 76.6168 17.6368C76.7128 17.9814 76.9408 18.1447 77.2949 18.1447Z" fill="white"/>
<path d="M67.1649 19.765V12.6728H69.0253V13.0295C69.2413 12.9691 69.4454 12.9146 69.6374 12.8663C69.9975 12.7877 70.3215 12.7393 70.6156 12.7091C70.9096 12.6849 71.1617 12.6667 71.3777 12.6667C71.7378 12.6667 72.0499 12.7272 72.3019 12.83C72.56 12.9388 72.764 13.0839 72.926 13.2714C73.0881 13.4588 73.2081 13.6825 73.2801 13.9425C73.3521 14.2085 73.3881 14.4867 73.3881 14.789V19.7529H71.3297V14.6983C71.3297 14.5532 71.2877 14.4443 71.2037 14.3718C71.1137 14.3053 71.0057 14.269 70.8676 14.269C70.6396 14.269 70.3635 14.2992 70.0635 14.3657C69.7634 14.4322 69.4814 14.529 69.2233 14.662V19.7529H67.1649V19.765Z" fill="white"/>
<path d="M63.8103 12.6729H65.8687V19.759H63.8103V12.6729Z" fill="white"/>
<path d="M56.3868 19.7651V10.7079C56.3868 10.3149 56.7169 9.94604 57.107 9.94604H62.7721V11.7901H59.1714C58.5713 11.7901 58.6253 11.8143 58.6253 12.4068V14.0816H62.52L62.334 15.829H58.6253V19.759H56.3868V19.7651Z" fill="white"/>
<path d="M63.8942 9.94604H65.7786C65.8206 9.94604 65.8626 9.98837 65.8626 10.0307V11.5785C65.8626 11.6208 65.8206 11.6632 65.7786 11.6632H63.8942C63.8462 11.6632 63.8042 11.6208 63.8042 11.5785V10.0307C63.8102 9.98232 63.8462 9.94604 63.8942 9.94604Z" fill="white"/>
</svg>
