<svg width="122" height="52" viewBox="0 0 122 52" fill="none" xmlns="http://www.w3.org/2000/svg">
<g clip-path="url(#clip0_4_694)">
<path d="M48.9185 38.0363H41.3049V18.3257H48.9185C51.54 18.3257 53.7739 19.2951 55.5064 21.2107C57.2616 23.1033 58.1506 25.4344 58.1506 28.181C58.1506 30.9045 57.2616 33.2817 55.5064 35.1974C53.7511 37.0669 51.54 38.0363 48.9185 38.0363ZM41.4873 37.8516H48.9185C51.4944 37.8516 53.6599 36.9054 55.3696 35.0589C57.0792 33.1894 57.9682 30.8583 57.9682 28.181C57.9682 25.4806 57.102 23.1726 55.3696 21.3261C53.6599 19.4566 51.4944 18.5103 48.9185 18.5103H41.4873V37.8516ZM48.9185 35.5667H43.8808V20.7722H48.9185C50.9017 20.7722 52.543 21.4877 53.7967 22.8956C55.0504 24.3035 55.6887 26.0807 55.6887 28.181C55.6887 30.2582 55.0504 32.0354 53.7967 33.4664C52.543 34.8512 50.9017 35.5667 48.9185 35.5667ZM44.0404 35.3821H48.8957C50.8333 35.3821 52.429 34.6896 53.6371 33.3279C54.8681 31.9431 55.4836 30.2121 55.4836 28.181C55.4836 26.1499 54.8681 24.4189 53.6371 23.0341C52.429 21.6723 50.8333 20.9799 48.8957 20.9799H44.0404V35.3821Z" fill="white"/>
<path d="M63.4163 38.0363H60.8404V23.9111H63.4163V25.9653C64.2597 24.442 65.673 23.6572 67.6106 23.6572H67.7018V26.3807H67.6106C66.448 26.3345 65.4679 26.6346 64.6472 27.3039C63.8266 27.9732 63.4163 29.0349 63.4163 30.5582V38.0363ZM61.0228 37.8516H63.2339V30.5582C63.2339 28.9888 63.667 27.8809 64.5332 27.1654C65.3767 26.473 66.3569 26.1499 67.5194 26.1961V23.8419C65.559 23.8649 64.1685 24.7189 63.3935 26.3807L63.2111 26.75V24.0958H61V37.8516H61.0228Z" fill="white"/>
<path d="M72.4432 38.0363H69.8673V23.9111H72.4432V38.0363ZM70.0497 37.8517H72.2608V24.0958H70.0497V37.8517ZM71.1667 22.3648C70.2093 22.3648 69.457 21.6031 69.457 20.6568C69.457 19.6874 70.2321 18.9258 71.1667 18.9258C72.1013 18.9258 72.8535 19.7105 72.8535 20.6568C72.8535 21.58 72.1013 22.3648 71.1667 22.3648ZM71.1667 19.0873C70.3232 19.0873 69.6394 19.7798 69.6394 20.6337C69.6394 21.4646 70.3232 22.157 71.1667 22.157C71.9873 22.157 72.6712 21.4646 72.6712 20.6337C72.6712 19.7798 71.9873 19.0873 71.1667 19.0873Z" fill="white"/>
<path d="M78.5067 43.5987H75.9308V23.8881H78.5067V26.0807C79.6921 24.3959 81.4245 23.5188 83.6128 23.5188C85.5504 23.5188 87.2373 24.2574 88.605 25.6884C89.9727 27.1424 90.6793 28.8965 90.6793 30.9276C90.6793 32.9817 89.9955 34.7589 88.605 36.213C87.2601 37.644 85.5732 38.3595 83.6128 38.3595C81.4017 38.3595 79.6921 37.5055 78.5067 35.7975V43.5987ZM76.1132 43.414H78.3243V35.2205L78.4839 35.4744C79.6465 37.2747 81.3789 38.1979 83.6128 38.1979C85.5276 38.1979 87.1689 37.5055 88.4682 36.0976C89.8131 34.6897 90.4742 32.9587 90.4742 30.9507C90.4742 28.9658 89.7903 27.2347 88.4682 25.8268C87.1233 24.4189 85.5048 23.7034 83.6128 23.7034C81.3789 23.7034 79.6465 24.6267 78.4839 26.4269L78.3243 26.6808V24.0727H76.1132V43.414ZM83.3165 36.0514C81.8804 36.0514 80.7178 35.5667 79.7604 34.5974C78.803 33.5818 78.3243 32.4047 78.3243 30.9737C78.3243 29.5197 78.803 28.3426 79.7604 27.3732C80.7178 26.3808 81.8804 25.8961 83.3165 25.8961C84.7298 25.8961 85.9151 26.4038 86.8497 27.3732C87.8071 28.3426 88.2858 29.5197 88.2858 30.9737C88.2858 32.4047 87.8071 33.6049 86.8497 34.5974C85.8923 35.5667 84.707 36.0514 83.3165 36.0514ZM83.3165 26.0576C81.926 26.0576 80.809 26.5192 79.8744 27.4886C78.9398 28.4349 78.5067 29.5658 78.5067 30.9737C78.5067 32.3586 78.9626 33.5126 79.8744 34.482C80.809 35.4283 81.926 35.8668 83.3165 35.8668C84.6614 35.8668 85.8012 35.4052 86.713 34.482C87.6476 33.5126 88.0807 32.3586 88.0807 30.9737C88.0807 29.5658 87.6248 28.4349 86.713 27.4886C85.8012 26.5192 84.6842 26.0576 83.3165 26.0576Z" fill="white"/>
<path d="M96.3554 38.0363H93.6199V18.3257H104.904V20.9568H96.3554V27.0962H104.539V29.7274H96.3554V38.0363ZM93.7795 37.8516H96.1502V29.5658H104.334V27.3039H96.1502V20.7722H104.698V18.5103H93.7795V37.8516Z" fill="white"/>
<path d="M110.146 38.0363H107.571V23.9111H110.146V38.0363ZM107.753 37.8517H109.964V24.0958H107.753V37.8517ZM108.87 22.3648C107.913 22.3648 107.16 21.6031 107.16 20.6568C107.16 19.6874 107.935 18.9258 108.87 18.9258C109.805 18.9258 110.557 19.7105 110.557 20.6568C110.557 21.58 109.805 22.3648 108.87 22.3648ZM108.87 19.0873C108.027 19.0873 107.343 19.7798 107.343 20.6337C107.343 21.4646 108.027 22.157 108.87 22.157C109.691 22.157 110.374 21.4646 110.374 20.6337C110.374 19.7798 109.691 19.0873 108.87 19.0873Z" fill="white"/>
<path d="M119.356 38.1517C117.92 38.1517 116.894 37.8516 116.21 37.2284C115.435 36.536 115.047 35.4513 115.047 33.8818V26.4269H112.312V23.9111H115.047V20.7491L117.623 19.9644V23.9111H121.293V26.4269H117.623V33.8818C117.623 34.5973 117.76 35.0358 118.034 35.3128C118.512 35.7744 119.447 35.7282 120.837 35.659L121.271 35.6359V37.9901H121.202C120.541 38.1055 119.926 38.1517 119.356 38.1517ZM112.517 26.2422H115.253V33.8818C115.253 35.382 115.617 36.4206 116.347 37.09C117.259 37.8978 118.786 38.1517 121.134 37.8516V35.8436L120.883 35.8667C119.447 35.936 118.49 35.9821 117.942 35.4513C117.623 35.1512 117.464 34.6435 117.464 33.8818V26.2422H121.134V24.0957H117.464V20.2182L115.253 20.8876V24.0957H112.517V26.2422Z" fill="white"/>
<path d="M43.0602 50.7997C42.5587 50.7997 42.1711 50.6151 41.8976 50.2458V50.7074H41.2593V46.0913H41.8976V47.8454C42.1711 47.4761 42.5587 47.2915 43.0602 47.2915C43.5161 47.2915 43.9036 47.453 44.2455 47.7993C44.5646 48.1455 44.7242 48.5609 44.7242 49.0456C44.7242 49.5303 44.5646 49.9457 44.2455 50.2919C43.9264 50.6151 43.5161 50.7997 43.0602 50.7997ZM41.8064 49.9457L41.8976 50.0842C42.1711 50.4997 42.5587 50.7074 43.0602 50.7074C43.4933 50.7074 43.8808 50.5458 44.1771 50.2227C44.4735 49.8996 44.633 49.5072 44.633 49.0456C44.633 48.584 44.4735 48.1916 44.1771 47.8685C43.8808 47.5454 43.4933 47.3838 43.0602 47.3838C42.5587 47.3838 42.1483 47.5915 41.8976 48.007L41.8064 48.1455V46.1836H41.3505V50.6151H41.8064V49.9457ZM42.9918 50.2458C42.6498 50.2458 42.3763 50.1304 42.1484 49.8996C41.9204 49.6688 41.8064 49.3687 41.8064 49.0456C41.8064 48.6994 41.9204 48.4224 42.1484 48.1916C42.3763 47.9608 42.6498 47.8454 42.9918 47.8454C43.3337 47.8454 43.6072 47.9608 43.8352 48.1916C44.0631 48.4224 44.1771 48.6994 44.1771 49.0456C44.1771 49.3918 44.0631 49.6688 43.8352 49.8996C43.6072 50.1304 43.3109 50.2458 42.9918 50.2458ZM42.9918 47.9377C42.6726 47.9377 42.4219 48.0531 42.2167 48.2609C42.0116 48.4686 41.8976 48.7225 41.8976 49.0456C41.8976 49.3687 41.9888 49.6226 42.2167 49.8303C42.4219 50.038 42.6726 50.1534 42.9918 50.1534C43.2881 50.1534 43.5617 50.038 43.7668 49.8303C43.972 49.5995 44.0859 49.3456 44.0859 49.0456C44.0859 48.7225 43.9948 48.4686 43.7668 48.2609C43.5617 48.0301 43.2881 47.9377 42.9918 47.9377Z" fill="white"/>
<path d="M47.2773 52C47.2545 52 47.2089 52 47.1861 52H47.1405V51.3768H47.1861C47.5508 51.3999 47.8244 51.1922 48.0067 50.7536L48.0523 50.6382L46.639 47.3608H47.3229L48.3714 49.8074L49.2605 47.3608H49.9443L48.6222 50.8691C48.3714 51.6076 47.8927 52 47.2773 52ZM47.2317 51.9077C47.8244 51.9307 48.3031 51.5615 48.5538 50.846L49.8303 47.4762H49.3288L48.3714 50.0843L47.2545 47.4762H46.753L48.1207 50.6613L48.0523 50.7998C47.87 51.2614 47.5736 51.4922 47.1861 51.4922V51.9077H47.2317Z" fill="white"/>
<path d="M57.5351 50.7074H55.7571V46.0913H57.5351C58.1506 46.0913 58.6749 46.3221 59.0852 46.7606C59.4955 47.1992 59.7007 47.7531 59.7007 48.3993C59.7007 49.0456 59.4955 49.5995 59.0852 50.038C58.6749 50.4766 58.1506 50.7074 57.5351 50.7074ZM55.8255 50.6151H57.5123C58.105 50.6151 58.6065 50.4073 58.994 49.9688C59.3815 49.5303 59.5867 48.9994 59.5867 48.3993C59.5867 47.7762 59.3815 47.2453 58.994 46.8299C58.6065 46.3914 58.105 46.1836 57.5123 46.1836H55.8255V50.6151ZM57.5351 50.1304H56.3498V46.6452H57.5351C58.0138 46.6452 58.4013 46.8068 58.6977 47.153C58.994 47.4761 59.1536 47.9147 59.1536 48.3993C59.1536 48.884 58.994 49.2995 58.6977 49.6457C58.3785 49.9688 57.991 50.1304 57.5351 50.1304ZM56.4181 50.038H57.5123C57.9454 50.038 58.3101 49.8765 58.6065 49.5764C58.88 49.2533 59.0396 48.8609 59.0396 48.3993C59.0396 47.9377 58.9028 47.5454 58.6065 47.2222C58.3329 46.8991 57.9682 46.7606 57.5123 46.7606H56.4181V50.038Z" fill="white"/>
<path d="M62.8008 50.7074H62.1625V47.3838H62.8008V47.7993C63.006 47.4761 63.3251 47.3376 63.7582 47.3376H63.8038V48.0301H63.7582C63.4847 48.007 63.2795 48.0762 63.0971 48.2378C62.9148 48.3993 62.8236 48.6301 62.8236 48.9763V50.7074H62.8008ZM62.2309 50.6151H62.6868V48.9533C62.6868 48.584 62.778 48.307 63.006 48.1455C63.2111 47.9839 63.4163 47.9147 63.6898 47.9147V47.43C63.2567 47.453 62.9604 47.6377 62.778 48.007L62.6868 48.1916V47.4761H62.2309V50.6151Z" fill="white"/>
<path d="M66.7672 50.7073H66.1289V47.3838H66.7672V50.7073ZM66.2201 50.615H66.676V47.4761H66.2201V50.615ZM66.4481 47.0837C66.2201 47.0837 66.015 46.8991 66.015 46.6683C66.015 46.4375 66.1973 46.2297 66.4481 46.2297C66.676 46.2297 66.8584 46.4144 66.8584 46.6683C66.8584 46.876 66.676 47.0837 66.4481 47.0837ZM66.4481 46.3221C66.2657 46.3221 66.1061 46.4836 66.1061 46.6683C66.1061 46.8529 66.2657 46.9914 66.4481 46.9914C66.6304 46.9914 66.7672 46.8529 66.7672 46.6683C66.7672 46.4605 66.6304 46.3221 66.4481 46.3221Z" fill="white"/>
<path d="M70.0497 51.9999H69.4114V47.3838H70.0497V47.8454C70.3232 47.4761 70.7108 47.2915 71.2123 47.2915C71.6682 47.2915 72.0557 47.4531 72.3976 47.7993C72.7167 48.1455 72.8763 48.5609 72.8763 49.0456C72.8763 49.5303 72.7167 49.9457 72.3976 50.292C72.0785 50.6382 71.691 50.7997 71.2123 50.7997C70.7108 50.7997 70.3232 50.6151 70.0497 50.2458V51.9999ZM69.5026 51.9076H69.9585V49.9457L70.0497 50.0842C70.3232 50.4997 70.7108 50.7074 71.2123 50.7074C71.6454 50.7074 72.0329 50.5458 72.3292 50.2227C72.6256 49.8996 72.7851 49.5072 72.7851 49.0456C72.7851 48.584 72.6256 48.1916 72.3292 47.8685C72.0329 47.5454 71.6454 47.3838 71.2123 47.3838C70.7108 47.3838 70.3004 47.5915 70.0497 48.007L69.9585 48.1455V47.4761H69.5026V51.9076ZM71.1439 50.2458C70.8019 50.2458 70.5284 50.1304 70.3005 49.8996C70.0725 49.6688 69.9585 49.3687 69.9585 49.0456C69.9585 48.6994 70.0725 48.4224 70.3005 48.1916C70.5284 47.9608 70.8019 47.8454 71.1439 47.8454C71.4858 47.8454 71.7593 47.9608 71.9873 48.1916C72.2152 48.4224 72.3292 48.6994 72.3292 49.0456C72.3292 49.3918 72.2152 49.6688 71.9873 49.8996C71.7593 50.1304 71.463 50.2458 71.1439 50.2458ZM71.1439 47.9378C70.8247 47.9378 70.574 48.0532 70.3688 48.2609C70.1637 48.4686 70.0497 48.7225 70.0497 49.0456C70.0497 49.3687 70.1409 49.6226 70.3688 49.8303C70.574 50.0381 70.8247 50.1535 71.1439 50.1535C71.4402 50.1535 71.7138 50.0381 71.9189 49.8303C72.1241 49.5995 72.238 49.3457 72.238 49.0456C72.238 48.7225 72.1469 48.4686 71.9189 48.2609C71.7138 48.0301 71.4402 47.9378 71.1439 47.9378Z" fill="white"/>
<path d="M82.2907 50.7074H81.6069V48.6763H79.5325V50.7074H78.8486V46.0913H79.5325V48.007H81.6069V46.0913H82.2907V50.7074ZM81.698 50.6151H82.1995V46.1836H81.698V48.0993H79.4413V46.1836H78.9398V50.6151H79.4413V48.584H81.698V50.6151Z" fill="white"/>
<path d="M85.2313 52C85.2085 52 85.1629 52 85.1401 52H85.0945V51.3768H85.1401C85.5049 51.3999 85.7784 51.1922 85.9608 50.7536L86.0063 50.6382L84.593 47.3608H85.2769L86.3255 49.8074L87.2145 47.3608H87.8984L86.5762 50.8691C86.3255 51.6076 85.824 52 85.2313 52ZM85.1857 51.9077C85.7784 51.9307 86.2571 51.5615 86.5078 50.846L87.7844 47.4762H87.2829L86.3255 50.0843L85.2085 47.4762H84.707L86.0747 50.6613L86.0063 50.7998C85.824 51.2614 85.5276 51.4922 85.1401 51.4922V51.9077H85.1857Z" fill="white"/>
<path d="M91.6368 50.7997C91.1809 50.7997 90.7705 50.6381 90.4514 50.2919C90.1323 49.9457 89.9727 49.5303 89.9727 49.0456C89.9727 48.5609 90.1323 48.1455 90.4514 47.7993C90.7705 47.453 91.1809 47.2915 91.6368 47.2915C92.1383 47.2915 92.5258 47.4761 92.7993 47.8454V46.0913H93.4376V50.7074H92.7993V50.2458C92.5258 50.6151 92.1155 50.7997 91.6368 50.7997ZM91.6368 47.3838C91.2037 47.3838 90.8389 47.5454 90.5198 47.8685C90.2235 48.1916 90.0639 48.584 90.0639 49.0456C90.0639 49.5072 90.2235 49.8996 90.5198 50.2227C90.8161 50.5458 91.2037 50.7074 91.6368 50.7074C92.1383 50.7074 92.5486 50.4997 92.7993 50.0842L92.8905 49.9457V50.6151H93.3464V46.1836H92.8905V48.1455L92.7993 48.007C92.5258 47.5915 92.1383 47.3838 91.6368 47.3838ZM91.7051 50.2458C91.386 50.2458 91.0897 50.1304 90.8617 49.8996C90.6338 49.6688 90.5198 49.3687 90.5198 49.0456C90.5198 48.6994 90.6338 48.4224 90.8617 48.1916C91.0897 47.9608 91.3632 47.8454 91.7051 47.8454C92.0471 47.8454 92.3206 47.9608 92.5486 48.1916C92.7765 48.4224 92.8905 48.6994 92.8905 49.0456C92.8905 49.3918 92.7765 49.6688 92.5486 49.8996C92.3206 50.1304 92.0471 50.2458 91.7051 50.2458ZM91.7051 47.9377C91.386 47.9377 91.1353 48.0531 90.9301 48.2609C90.725 48.4686 90.611 48.7225 90.611 49.0456C90.611 49.3687 90.7022 49.6226 90.9301 49.8303C91.1353 50.038 91.386 50.1534 91.7051 50.1534C92.0243 50.1534 92.275 50.0611 92.4802 49.8303C92.6853 49.5995 92.7993 49.3456 92.7993 49.0456C92.7993 48.7225 92.7081 48.4686 92.4802 48.2609C92.275 48.0301 92.0243 47.9377 91.7051 47.9377Z" fill="white"/>
<path d="M96.7201 50.7074H96.0818V47.3838H96.7201V47.7993C96.9253 47.4761 97.2444 47.3376 97.6775 47.3376H97.7231V48.0301H97.6775C97.404 48.007 97.1988 48.0762 97.0165 48.2378C96.8341 48.3993 96.7429 48.6301 96.7429 48.9763V50.7074H96.7201ZM96.1502 50.6151H96.6061V48.9533C96.6061 48.584 96.6973 48.307 96.9253 48.1455C97.1304 47.9839 97.3584 47.9147 97.6091 47.9147V47.43C97.176 47.453 96.8797 47.6377 96.6973 48.007L96.6061 48.1916V47.4761H96.1502V50.6151Z" fill="white"/>
<path d="M101.348 50.7997C100.892 50.7997 100.481 50.6382 100.162 50.292C99.843 49.9457 99.6835 49.5303 99.6835 49.0456C99.6835 48.5609 99.843 48.1455 100.162 47.7993C100.481 47.4531 100.892 47.2915 101.348 47.2915C101.849 47.2915 102.237 47.4761 102.51 47.8454V47.3838H103.148V50.7074H102.51V50.2458C102.237 50.6151 101.849 50.7997 101.348 50.7997ZM101.348 47.3838C100.914 47.3838 100.55 47.5454 100.231 47.8685C99.9342 48.1916 99.7747 48.584 99.7747 49.0456C99.7747 49.5072 99.9342 49.8996 100.231 50.2227C100.527 50.5458 100.914 50.7074 101.348 50.7074C101.849 50.7074 102.259 50.4997 102.51 50.0842L102.601 49.9457V50.6151H103.057V47.4761H102.601V48.1455L102.51 48.007C102.259 47.5915 101.872 47.3838 101.348 47.3838ZM101.416 50.2458C101.097 50.2458 100.8 50.1304 100.572 49.8996C100.345 49.6688 100.231 49.3687 100.231 49.0456C100.231 48.6994 100.345 48.4224 100.572 48.1916C100.8 47.9608 101.074 47.8454 101.416 47.8454C101.758 47.8454 102.031 47.9608 102.259 48.1916C102.487 48.4224 102.601 48.6994 102.601 49.0456C102.601 49.3918 102.487 49.6688 102.259 49.8996C102.031 50.1304 101.758 50.2458 101.416 50.2458ZM101.416 47.9378C101.097 47.9378 100.846 48.0532 100.641 48.2609C100.436 48.4686 100.322 48.7225 100.322 49.0456C100.322 49.3687 100.413 49.6226 100.641 49.8303C100.846 50.0381 101.097 50.1535 101.416 50.1535C101.735 50.1535 101.986 50.0611 102.191 49.8303C102.396 49.5995 102.51 49.3457 102.51 49.0456C102.51 48.7225 102.419 48.4686 102.191 48.2609C101.986 48.0301 101.735 47.9378 101.416 47.9378Z" fill="white"/>
<path d="M107.138 50.7306C106.796 50.7306 106.568 50.6613 106.385 50.4998C106.203 50.3382 106.112 50.0843 106.112 49.715V48.0071H105.473V47.3608H106.112V46.6453L106.75 46.4607V47.3839H107.593V48.0302H106.75V49.7381C106.75 49.8997 106.773 49.992 106.841 50.0612C106.955 50.1536 107.16 50.1535 107.479 50.1305H107.616V50.7306H107.571C107.411 50.7306 107.274 50.7306 107.138 50.7306ZM105.587 47.9378H106.226V49.7381C106.226 50.0843 106.317 50.3151 106.476 50.4536C106.682 50.6382 107.024 50.6844 107.548 50.6152V50.1997H107.525C107.183 50.2228 106.955 50.2228 106.818 50.1074C106.727 50.0381 106.704 49.8997 106.704 49.715V47.9148H107.548V47.4531H106.682V46.553L106.226 46.6915V47.4301H105.587V47.9378Z" fill="white"/>
<path d="M110.739 50.7073H110.101V47.3838H110.739V50.7073ZM110.169 50.615H110.625V47.4761H110.169V50.615ZM110.397 47.0837C110.169 47.0837 109.964 46.8991 109.964 46.6683C109.964 46.4375 110.146 46.2297 110.397 46.2297C110.625 46.2297 110.808 46.4144 110.808 46.6683C110.83 46.876 110.648 47.0837 110.397 47.0837ZM110.397 46.3221C110.215 46.3221 110.055 46.4836 110.055 46.6683C110.055 46.8529 110.215 46.9914 110.397 46.9914C110.58 46.9914 110.716 46.8529 110.716 46.6683C110.739 46.4605 110.58 46.3221 110.397 46.3221Z" fill="white"/>
<path d="M114.911 50.7997C114.432 50.7997 114.022 50.6382 113.68 50.292C113.338 49.9457 113.178 49.5303 113.178 49.0456C113.178 48.5609 113.338 48.1455 113.68 47.7993C114.022 47.4531 114.432 47.2915 114.911 47.2915C115.389 47.2915 115.8 47.4531 116.142 47.7993C116.484 48.1455 116.643 48.5609 116.643 49.0456C116.643 49.5303 116.484 49.9457 116.142 50.292C115.8 50.6151 115.389 50.7997 114.911 50.7997ZM114.911 47.3838C114.455 47.3838 114.067 47.5454 113.748 47.8685C113.429 48.1916 113.269 48.584 113.269 49.0456C113.269 49.5072 113.429 49.8996 113.748 50.2227C114.067 50.5458 114.455 50.7074 114.911 50.7074C115.367 50.7074 115.754 50.5458 116.073 50.2227C116.392 49.8996 116.552 49.5072 116.552 49.0456C116.552 48.584 116.392 48.1916 116.073 47.8685C115.754 47.5454 115.367 47.3838 114.911 47.3838ZM114.911 50.2458C114.592 50.2458 114.295 50.1304 114.09 49.8996C113.862 49.6688 113.748 49.3918 113.748 49.0456C113.748 48.6994 113.862 48.4224 114.09 48.1916C114.318 47.9608 114.592 47.8454 114.911 47.8454C115.23 47.8454 115.526 47.9608 115.754 48.1916C115.982 48.4224 116.096 48.6994 116.096 49.0456C116.096 49.3918 115.982 49.6688 115.754 49.8996C115.526 50.1304 115.23 50.2458 114.911 50.2458ZM114.911 47.9378C114.614 47.9378 114.341 48.0532 114.136 48.2609C113.93 48.4686 113.817 48.7225 113.817 49.0456C113.817 49.3687 113.908 49.6226 114.136 49.8303C114.341 50.0381 114.592 50.1535 114.911 50.1535C115.207 50.1535 115.481 50.0381 115.686 49.8303C115.891 49.6226 116.005 49.3687 116.005 49.0456C116.005 48.7225 115.914 48.4686 115.686 48.2609C115.481 48.0532 115.207 47.9378 114.911 47.9378Z" fill="white"/>
<path d="M122 50.7074H121.362V48.6994C121.362 48.1916 121.088 47.9147 120.609 47.9147C120.04 47.9147 119.72 48.284 119.72 48.9302V50.6843H119.082V47.3607H119.72V47.73C119.948 47.43 120.29 47.2915 120.701 47.2915C121.476 47.2915 121.977 47.8224 121.977 48.6763V50.7074H122ZM121.453 50.6151H121.909V48.6763C121.909 47.8916 121.43 47.3838 120.723 47.3838C120.268 47.3838 119.948 47.5454 119.72 47.9147L119.629 48.0532V47.4761H119.173V50.6151H119.629V48.9533C119.629 48.2378 119.994 47.8454 120.609 47.8454C121.134 47.8454 121.453 48.1686 121.453 48.7225V50.6151Z" fill="white"/>
<path d="M15.2728 46.3914C6.86136 46.3914 0 39.4673 0 30.9276C0 28.2041 0.706652 25.5498 2.02877 23.2187L13.5632 0.946203C13.7911 0.530757 14.1558 0.230712 14.5889 0.0922302C15.0448 -0.0693322 15.5007 -0.0231715 15.9339 0.207632C16.3442 0.415355 16.6405 0.78464 16.7773 1.24625C16.9141 1.70785 16.8685 2.16946 16.6633 2.58491L4.67302 25.7345C3.89798 27.3501 3.48767 29.1504 3.48767 30.9276C3.48767 37.5055 8.77616 42.8601 15.2728 42.8601C21.7694 42.8601 27.0579 37.5055 27.0579 30.9276C27.0579 29.0811 26.6248 27.2347 25.8042 25.596L25.7586 25.5037L25.3483 24.7189L19.7862 14.0328L11.8991 28.8965C11.5116 29.6351 11.352 30.3044 11.3748 31.066C11.3748 31.1353 11.3748 31.1814 11.3748 31.2507C11.5344 33.1664 13.0845 34.7127 14.9765 34.8512C16.0706 34.9205 17.1192 34.5512 17.917 33.8126C18.5553 33.1894 18.9656 32.4278 19.1024 31.5507C19.2392 30.6968 19.9458 30.0736 20.7892 30.0736H20.8804C21.3819 30.0736 21.8378 30.2813 22.1797 30.6737C22.4989 31.043 22.6356 31.5507 22.5673 32.0585C22.3165 33.7203 21.5187 35.2667 20.3105 36.4207C18.9428 37.7132 17.142 38.4287 15.2728 38.4287C15.0904 38.4287 14.9309 38.4287 14.7485 38.4056C11.1469 38.1517 8.20628 35.2205 7.90994 31.5969C7.90994 31.4815 7.88715 31.3661 7.88715 31.2738C7.84155 30.0043 8.22907 28.5041 8.89013 27.2347L19.7862 6.48548L28.5168 23.2418C29.8389 25.5729 30.5456 28.2272 30.5456 30.9276C30.5456 39.4673 23.6842 46.3914 15.2728 46.3914ZM15.1132 0.184552C14.9537 0.184552 14.7941 0.207632 14.6573 0.253793C14.2698 0.369194 13.9279 0.646158 13.7455 1.03852L2.21114 23.311C0.889014 25.6191 0.205157 28.2733 0.205157 30.9506C0.205157 39.375 6.97534 46.2298 15.2956 46.2298C23.6158 46.2298 30.386 39.375 30.386 30.9506C30.386 28.2733 29.7022 25.6652 28.38 23.3572L19.7862 6.87785L9.0497 27.327C8.41144 28.5503 8.02392 30.0274 8.06951 31.1814C8.06951 31.2968 8.06951 31.3892 8.0923 31.5046C8.38864 35.0589 11.2608 37.9209 14.7713 38.1517C14.9309 38.1748 15.1132 38.1748 15.2956 38.1748C17.1192 38.1748 18.8744 37.4824 20.1966 36.213C21.3819 35.1051 22.1569 33.5818 22.4077 31.9662C22.4761 31.5276 22.3393 31.0891 22.0658 30.7429C21.7694 30.3967 21.3591 30.2121 20.9032 30.2121H20.812C20.0598 30.2121 19.4215 30.766 19.3075 31.5276C19.1708 32.4509 18.7377 33.2587 18.0538 33.9049C17.2104 34.6897 16.139 35.082 14.9765 35.0128C12.9933 34.8512 11.3748 33.2356 11.2152 31.2507C11.2152 31.1814 11.2152 31.1353 11.2152 31.066C11.1925 30.2582 11.352 29.5658 11.7623 28.8042L19.809 13.6404L25.9638 25.4344L26.0093 25.5268C26.83 27.2116 27.2859 29.0811 27.2859 30.9506C27.2859 37.6209 21.9062 43.0678 15.3184 43.0678C8.73057 43.0678 3.3509 37.6209 3.3509 30.9506C3.3509 29.1042 3.78401 27.2347 4.58184 25.5729L4.62743 25.4806L16.5265 2.49259C16.7317 2.1233 16.7545 1.68477 16.6405 1.29241C16.5265 0.900042 16.253 0.553837 15.8655 0.369194C15.6147 0.253792 15.364 0.184552 15.1132 0.184552Z" fill="white"/>
<path d="M48.9185 18.418C51.54 18.418 53.7055 19.3643 55.438 21.2569C57.1704 23.1264 58.0594 25.4344 58.0594 28.181C58.0594 30.9275 57.1704 33.2355 55.438 35.1281C53.7055 36.9976 51.5172 37.9439 48.9185 37.9439H41.3961V18.418H48.9185ZM48.9185 35.4743C50.8789 35.4743 52.4974 34.7819 53.7283 33.374C54.9593 31.9892 55.5975 30.2582 55.5975 28.1579C55.5975 26.0576 54.9593 24.3265 53.7283 22.9417C52.4974 21.5569 50.8561 20.8414 48.9185 20.8414H43.972V35.4513H48.9185V35.4743Z" fill="#5E3A95"/>
<path d="M63.3251 26.3345C64.1229 24.6035 65.559 23.7495 67.6106 23.7495V26.2883C66.4253 26.2422 65.4451 26.5422 64.5788 27.2346C63.7354 27.9271 63.3023 29.0118 63.3023 30.5582V37.9439H60.9088V24.0034H63.3023V26.3345H63.3251Z" fill="#5E3A95"/>
<path d="M69.5482 20.6568C69.5482 19.7566 70.2549 19.0181 71.1667 19.0181C72.0557 19.0181 72.7623 19.7797 72.7623 20.6568C72.7623 21.5569 72.0557 22.2724 71.1667 22.2724C70.2549 22.2724 69.5482 21.5338 69.5482 20.6568ZM69.9585 37.9439V24.0034H72.352V37.9439H69.9585Z" fill="#5E3A95"/>
<path d="M88.5366 25.7805C89.8815 27.2115 90.5654 28.9425 90.5654 30.9736C90.5654 33.0047 89.8815 34.7588 88.5366 36.1897C87.1917 37.6207 85.5276 38.3131 83.6128 38.3131C81.3333 38.3131 79.6009 37.3899 78.4155 35.5435V43.5293H76.022V24.0033H78.4155V26.4037C79.6009 24.5572 81.3333 23.634 83.6128 23.634C85.5504 23.634 87.1917 24.3495 88.5366 25.7805ZM86.7814 34.528C87.716 33.5586 88.1947 32.3815 88.1947 30.9505C88.1947 29.5195 87.716 28.3655 86.7814 27.4192C85.8468 26.4498 84.6842 25.9651 83.3165 25.9651C81.9032 25.9651 80.7634 26.4498 79.8288 27.4192C78.8942 28.3655 78.4155 29.5426 78.4155 30.9505C78.4155 32.3815 78.8942 33.5355 79.8288 34.528C80.7634 35.4742 81.926 35.9589 83.3165 35.9589C84.6842 35.9589 85.8468 35.4742 86.7814 34.528Z" fill="#5E3A95"/>
<path d="M104.79 20.8645H96.2414V27.1885H104.425V29.635H96.2414V37.9209H93.6884V18.418H104.79V20.8645Z" fill="#5E3A95"/>
<path d="M107.251 20.6568C107.251 19.7566 107.958 19.0181 108.87 19.0181C109.759 19.0181 110.466 19.7797 110.466 20.6568C110.466 21.5569 109.759 22.2724 108.87 22.2724C107.958 22.2724 107.251 21.5338 107.251 20.6568ZM107.662 37.9439V24.0034H110.055V37.9439H107.662Z" fill="#5E3A95"/>
<path d="M121.202 26.3345H117.532V33.8817C117.532 36.0282 118.74 35.8667 121.202 35.7513V37.9208C117.008 38.4747 115.139 37.3438 115.139 33.8817V26.3345H112.403V24.0034H115.139V20.8183L117.532 20.1028V24.0034H121.202V26.3345Z" fill="#5E3A95"/>
<path d="M44.1999 47.8455C44.5191 48.1687 44.6786 48.5841 44.6786 49.0457C44.6786 49.5073 44.5191 49.9228 44.1999 50.2459C43.8808 50.569 43.4933 50.7306 43.0602 50.7306C42.5359 50.7306 42.1256 50.5228 41.852 50.0843V50.6383H41.3049V46.1145H41.852V47.9609C42.1256 47.5455 42.5359 47.3147 43.0602 47.3147C43.5161 47.3378 43.8808 47.5224 44.1999 47.8455ZM43.7896 49.8766C44.0176 49.6458 44.1087 49.3688 44.1087 49.0457C44.1087 48.7226 43.9948 48.4456 43.7896 48.2148C43.5617 47.984 43.3109 47.8686 42.9918 47.8686C42.6726 47.8686 42.3991 47.984 42.1711 48.2148C41.9432 48.4456 41.852 48.6995 41.852 49.0457C41.852 49.3688 41.966 49.6458 42.1711 49.8766C42.3991 50.1074 42.6498 50.1997 42.9918 50.1997C43.3109 50.1997 43.5844 50.0843 43.7896 49.8766Z" fill="#5E3A95"/>
<path d="M49.3061 47.4302H49.8987L48.5994 50.8691C48.3259 51.6077 47.8244 52.0001 47.1861 51.9539V51.4231C47.5736 51.4692 47.87 51.2384 48.0523 50.7768L48.1207 50.6614L46.7302 47.4302H47.3229L48.417 49.969L49.3061 47.4302Z" fill="#5E3A95"/>
<path d="M57.5351 46.1377C58.1506 46.1377 58.6521 46.3685 59.0396 46.807C59.4499 47.2456 59.6551 47.7764 59.6551 48.3996C59.6551 49.0227 59.4499 49.5767 59.0396 50.0152C58.6293 50.4537 58.1278 50.6614 57.5351 50.6614H55.8027V46.1377H57.5351ZM57.5351 50.0844C57.991 50.0844 58.3557 49.9229 58.6521 49.5997C58.9484 49.2766 59.0852 48.8843 59.0852 48.3996C59.0852 47.9149 58.9484 47.5225 58.6521 47.1994C58.3557 46.8763 57.991 46.7147 57.5351 46.7147H56.3953V50.1075H57.5351V50.0844Z" fill="#5E3A95"/>
<path d="M62.7552 47.9841C62.9376 47.5918 63.2795 47.384 63.7582 47.384V47.961C63.4847 47.938 63.2567 48.0303 63.0516 48.1918C62.8464 48.3534 62.7552 48.6073 62.7552 48.9535V50.6614H62.2081V47.4302H62.7552V47.9841Z" fill="#5E3A95"/>
<path d="M66.0605 46.6453C66.0605 46.4376 66.2201 46.2529 66.448 46.2529C66.6532 46.2529 66.8128 46.4376 66.8128 46.6453C66.8128 46.853 66.6532 47.0146 66.448 47.0146C66.2429 47.0377 66.0605 46.853 66.0605 46.6453ZM66.1745 50.6613V47.43H66.7216V50.6613H66.1745Z" fill="#5E3A95"/>
<path d="M72.352 47.8455C72.6712 48.1687 72.8307 48.5841 72.8307 49.0457C72.8307 49.5073 72.6712 49.9228 72.352 50.2459C72.0329 50.569 71.6454 50.7306 71.2123 50.7306C70.688 50.7306 70.2777 50.5229 70.0041 50.0843V51.9308H69.457V47.407H70.0041V47.9609C70.2777 47.5455 70.688 47.3147 71.2123 47.3147C71.6454 47.3378 72.0329 47.5224 72.352 47.8455ZM71.9417 49.8766C72.1697 49.6458 72.2608 49.3688 72.2608 49.0457C72.2608 48.7226 72.1469 48.4456 71.9417 48.2148C71.7138 47.984 71.463 47.8686 71.1439 47.8686C70.8247 47.8686 70.5512 47.984 70.3233 48.2148C70.0953 48.4456 70.0041 48.6995 70.0041 49.0457C70.0041 49.3688 70.1181 49.6458 70.3233 49.8766C70.5512 50.1074 70.8019 50.1997 71.1439 50.1997C71.463 50.1997 71.7366 50.0843 71.9417 49.8766Z" fill="#5E3A95"/>
<path d="M81.6524 46.1377H82.2451V50.6614H81.6524V48.6304H79.4869V50.6614H78.8942V46.1377H79.4869V48.0534H81.6524V46.1377Z" fill="#5E3A95"/>
<path d="M87.2601 47.4301H87.8528L86.5534 50.869C86.2799 51.6076 85.7784 52 85.1401 51.9538V51.423C85.5277 51.446 85.824 51.2383 86.0064 50.7536L86.0747 50.6382L84.6842 47.407H85.2769L86.3711 49.9458L87.2601 47.4301Z" fill="#5E3A95"/>
<path d="M92.8449 46.1377H93.392V50.6614H92.8449V50.1075C92.5714 50.523 92.1611 50.7538 91.6368 50.7538C91.1809 50.7538 90.8161 50.5922 90.497 50.2691C90.1779 49.946 90.0183 49.5305 90.0183 49.0689C90.0183 48.6073 90.1779 48.1918 90.497 47.8687C90.8161 47.5456 91.2037 47.361 91.6368 47.361C92.1611 47.361 92.5714 47.5687 92.8449 48.0072V46.1377ZM92.503 49.8767C92.7309 49.6459 92.8221 49.3689 92.8221 49.0458C92.8221 48.7227 92.7081 48.4457 92.503 48.2149C92.275 47.9841 92.0243 47.8687 91.6824 47.8687C91.3632 47.8687 91.0897 47.9841 90.8845 48.2149C90.6566 48.4457 90.5654 48.6996 90.5654 49.0458C90.5654 49.3689 90.6794 49.6459 90.8845 49.8767C91.1125 50.1075 91.3632 50.1998 91.6824 50.1998C92.0243 50.1998 92.2978 50.0844 92.503 49.8767Z" fill="#5E3A95"/>
<path d="M96.6745 47.9841C96.8569 47.5918 97.1988 47.384 97.6775 47.384V47.961C97.4039 47.938 97.176 48.0303 96.9708 48.1918C96.7657 48.3534 96.6745 48.6073 96.6745 48.9535V50.6614H96.1274V47.4302H96.6745V47.9841Z" fill="#5E3A95"/>
<path d="M102.556 47.4301H103.103V50.6613H102.556V50.1074C102.282 50.5228 101.872 50.7536 101.348 50.7536C100.892 50.7536 100.527 50.5921 100.208 50.269C99.8886 49.9458 99.7291 49.5304 99.7291 49.0688C99.7291 48.6072 99.8886 48.1917 100.208 47.8686C100.527 47.5455 100.914 47.3608 101.348 47.3608C101.872 47.3608 102.282 47.5686 102.556 48.0071V47.4301ZM102.237 49.8766C102.464 49.6458 102.556 49.3688 102.556 49.0457C102.556 48.7226 102.442 48.4456 102.237 48.2148C102.009 47.984 101.758 47.8686 101.416 47.8686C101.097 47.8686 100.823 47.984 100.618 48.2148C100.39 48.4456 100.299 48.6995 100.299 49.0457C100.299 49.3688 100.413 49.6458 100.618 49.8766C100.846 50.1074 101.097 50.1997 101.416 50.1997C101.758 50.1997 102.009 50.0843 102.237 49.8766Z" fill="#5E3A95"/>
<path d="M107.571 47.9841H106.727V49.7382C106.727 50.246 107.001 50.1998 107.571 50.1767V50.6845C106.59 50.823 106.157 50.546 106.157 49.7382V47.9841H105.542V47.4302H106.18V46.6916L106.727 46.53V47.4302H107.571V47.9841Z" fill="#5E3A95"/>
<path d="M110.033 46.6453C110.033 46.4376 110.192 46.2529 110.42 46.2529C110.625 46.2529 110.785 46.4376 110.785 46.6453C110.785 46.853 110.625 47.0146 110.42 47.0146C110.192 47.0377 110.033 46.853 110.033 46.6453ZM110.124 50.6613V47.43H110.671V50.6613H110.124Z" fill="#5E3A95"/>
<path d="M114.911 50.7538C114.455 50.7538 114.044 50.5922 113.725 50.2691C113.406 49.946 113.247 49.5305 113.247 49.0689C113.247 48.5842 113.406 48.1918 113.725 47.8687C114.044 47.5456 114.455 47.384 114.911 47.384C115.367 47.384 115.777 47.5456 116.096 47.8687C116.415 48.1918 116.598 48.6073 116.598 49.0689C116.598 49.5536 116.438 49.946 116.096 50.2691C115.777 50.5922 115.367 50.7538 114.911 50.7538ZM115.708 49.8767C115.936 49.6459 116.028 49.392 116.028 49.0458C116.028 48.7227 115.914 48.4457 115.708 48.2149C115.481 47.9841 115.23 47.8918 114.911 47.8918C114.592 47.8918 114.341 48.0072 114.113 48.2149C113.885 48.4457 113.794 48.6996 113.794 49.0458C113.794 49.3689 113.908 49.6459 114.113 49.8767C114.341 50.1075 114.592 50.1998 114.911 50.1998C115.23 50.1998 115.503 50.0844 115.708 49.8767Z" fill="#5E3A95"/>
<path d="M121.954 48.6764V50.6613H121.407V48.6995C121.407 48.1687 121.111 47.8686 120.61 47.8686C120.062 47.8686 119.675 48.2148 119.675 48.9303V50.6383H119.128V47.407H119.675V47.8686C119.903 47.4993 120.245 47.3147 120.701 47.3147C121.476 47.3378 121.954 47.8455 121.954 48.6764Z" fill="#5E3A95"/>
<path d="M28.4484 23.2879L19.7863 6.69311L8.95853 27.3039C8.29747 28.5502 7.93274 30.0273 7.97833 31.2044C7.97833 31.3198 7.97833 31.4122 8.00113 31.5276C8.29746 35.1281 11.1925 38.0131 14.7485 38.267C14.9309 38.2901 15.0904 38.2901 15.2728 38.2901C17.1192 38.2901 18.8972 37.5746 20.2422 36.3052C21.4503 35.1742 22.2253 33.6509 22.4761 31.9892C22.5445 31.5276 22.4077 31.0429 22.1114 30.6967C21.815 30.3274 21.3591 30.1197 20.8804 30.1197H20.812C20.0142 30.1197 19.3531 30.7197 19.2164 31.5276C19.0796 32.4277 18.6693 33.2124 17.9854 33.8587C17.1648 34.6203 16.0934 35.0127 14.9765 34.9434C13.0389 34.805 11.4432 33.2355 11.2836 31.2737C11.2836 31.2044 11.2836 31.1583 11.2836 31.089C11.2608 30.3043 11.4204 29.6119 11.8079 28.8733L19.7635 13.8711L25.4167 24.7189L25.827 25.5036L25.8726 25.5959C26.6932 27.2577 27.1263 29.1041 27.1263 30.9736C27.1263 37.5977 21.7922 42.9985 15.25 42.9985C8.70778 42.9985 3.3737 37.5977 3.3737 30.9736C3.3737 29.1272 3.80681 27.2808 4.60464 25.6421L16.5721 2.53865C16.7773 2.14629 16.8229 1.68468 16.6861 1.26923C16.5721 0.830708 16.2758 0.484503 15.8883 0.27678C15.5008 0.0690568 15.0448 0.0459765 14.6117 0.161378C14.2014 0.29986 13.8595 0.599905 13.6543 0.99227L2.11996 23.2648C0.797838 25.5959 0.0911865 28.2501 0.0911865 30.9275C0.0911865 39.3979 6.90696 46.299 15.2728 46.299C23.6386 46.299 30.4544 39.3979 30.4544 30.9275C30.4544 28.2501 29.7706 25.5959 28.4484 23.2879Z" fill="#5E3A95"/>
</g>
<defs>
<clipPath id="clip0_4_694">
<rect width="122" height="52" fill="white"/>
</clipPath>
</defs>
</svg>
