<svg width="122" height="53" viewBox="0 0 122 53" fill="none" xmlns="http://www.w3.org/2000/svg">
<path d="M48.9183 38.1806H41.3047V18.47H48.9183C51.5397 18.47 53.7737 19.4393 55.5061 21.355C57.2613 23.2476 58.1504 25.5787 58.1504 28.3253C58.1504 31.0488 57.2613 33.426 55.5061 35.3417C53.7509 37.2112 51.5397 38.1806 48.9183 38.1806ZM41.487 37.9959H48.9183C51.4941 37.9959 53.6597 37.0496 55.3693 35.2032C57.079 33.3337 57.968 31.0026 57.968 28.3253C57.968 25.6249 57.1018 23.3168 55.3693 21.4704C53.6597 19.6009 51.4941 18.6546 48.9183 18.6546H41.487V37.9959ZM48.9183 35.711H43.8805V20.9165H48.9183C50.9015 20.9165 52.5427 21.632 53.7965 23.0399C55.0502 24.4478 55.6885 26.225 55.6885 28.3253C55.6885 30.4025 55.0502 32.1797 53.7965 33.6107C52.5427 34.9955 50.9015 35.711 48.9183 35.711ZM44.0401 35.5263H48.8955C50.8331 35.5263 52.4288 34.8339 53.6369 33.4722C54.8678 32.0874 55.4833 30.3563 55.4833 28.3253C55.4833 26.2942 54.8678 24.5632 53.6369 23.1784C52.4288 21.8166 50.8331 21.1242 48.8955 21.1242H44.0401V35.5263Z" fill="white"/>
<path d="M63.4157 38.1806H60.8398V24.0554H63.4157V26.1095C64.2591 24.5862 65.6724 23.8015 67.61 23.8015H67.7012V26.525H67.61C66.4475 26.4788 65.4673 26.7789 64.6466 27.4482C63.826 28.1175 63.4157 29.1792 63.4157 30.7025V38.1806ZM61.0222 37.9959H63.2333V30.7025C63.2333 29.1331 63.6664 28.0252 64.5327 27.3097C65.3761 26.6173 66.3563 26.2942 67.5188 26.3404V23.9862C65.5585 24.0092 64.1679 24.8632 63.3929 26.525L63.2105 26.8943V24.24H60.9994V37.9959H61.0222Z" fill="white"/>
<path d="M72.4432 38.1806H69.8673V24.0554H72.4432V38.1806ZM70.0497 37.9959H72.2608V24.2401H70.0497V37.9959ZM71.1667 22.509C70.2093 22.509 69.457 21.7474 69.457 20.8011C69.457 19.8317 70.2321 19.0701 71.1667 19.0701C72.1013 19.0701 72.8535 19.8548 72.8535 20.8011C72.8535 21.7243 72.1013 22.509 71.1667 22.509ZM71.1667 19.2316C70.3232 19.2316 69.6394 19.924 69.6394 20.778C69.6394 21.6089 70.3232 22.3013 71.1667 22.3013C71.9873 22.3013 72.6712 21.6089 72.6712 20.778C72.6712 19.924 71.9873 19.2316 71.1667 19.2316Z" fill="white"/>
<path d="M78.5065 43.743H75.9307V24.0324H78.5065V26.225C79.6919 24.5401 81.4243 23.6631 83.6126 23.6631C85.5502 23.6631 87.2371 24.4017 88.6048 25.8326C89.9725 27.2867 90.6792 29.0408 90.6792 31.0719C90.6792 33.126 89.9953 34.9032 88.6048 36.3573C87.2599 37.7883 85.573 38.5037 83.6126 38.5037C81.4015 38.5037 79.6919 37.6498 78.5065 35.9418V43.743ZM76.113 43.5583H78.3242V35.3648L78.4837 35.6187C79.6463 37.419 81.3787 38.3422 83.6126 38.3422C85.5274 38.3422 87.1687 37.6498 88.468 36.2419C89.813 34.834 90.474 33.1029 90.474 31.095C90.474 29.11 89.7902 27.379 88.468 25.9711C87.1231 24.5632 85.5047 23.8477 83.6126 23.8477C81.3787 23.8477 79.6463 24.7709 78.4837 26.5712L78.3242 26.8251V24.217H76.113V43.5583ZM83.3163 36.1957C81.8802 36.1957 80.7177 35.711 79.7603 34.7416C78.8029 33.7261 78.3242 32.549 78.3242 31.118C78.3242 29.664 78.8029 28.4869 79.7603 27.5175C80.7177 26.525 81.8802 26.0404 83.3163 26.0404C84.7296 26.0404 85.915 26.5481 86.8496 27.5175C87.807 28.4869 88.2857 29.664 88.2857 31.118C88.2857 32.549 87.807 33.7492 86.8496 34.7416C85.8922 35.711 84.7068 36.1957 83.3163 36.1957ZM83.3163 26.2019C81.9258 26.2019 80.8088 26.6635 79.8742 27.6329C78.9396 28.5792 78.5065 29.7101 78.5065 31.118C78.5065 32.5029 78.9624 33.6569 79.8742 34.6262C80.8088 35.5725 81.9258 36.0111 83.3163 36.0111C84.6612 36.0111 85.801 35.5495 86.7128 34.6262C87.6474 33.6569 88.0805 32.5029 88.0805 31.118C88.0805 29.7101 87.6246 28.5792 86.7128 27.6329C85.801 26.6635 84.684 26.2019 83.3163 26.2019Z" fill="white"/>
<path d="M96.3555 38.1806H93.6201V18.47H104.904V21.1011H96.3555V27.2405H104.539V29.8717H96.3555V38.1806ZM93.7797 37.9959H96.1504V29.7101H104.334V27.4482H96.1504V20.9165H104.699V18.6546H93.7797V37.9959Z" fill="white"/>
<path d="M110.146 38.1806H107.57V24.0554H110.146V38.1806ZM107.753 37.9959H109.964V24.2401H107.753V37.9959ZM108.87 22.509C107.912 22.509 107.16 21.7474 107.16 20.8011C107.16 19.8317 107.935 19.0701 108.87 19.0701C109.804 19.0701 110.557 19.8548 110.557 20.8011C110.557 21.7243 109.804 22.509 108.87 22.509ZM108.87 19.2316C108.026 19.2316 107.343 19.924 107.343 20.778C107.343 21.6089 108.026 22.3013 108.87 22.3013C109.69 22.3013 110.374 21.6089 110.374 20.778C110.374 19.924 109.69 19.2316 108.87 19.2316Z" fill="white"/>
<path d="M119.355 38.296C117.919 38.296 116.893 37.9959 116.21 37.3727C115.434 36.6803 115.047 35.5956 115.047 34.0261V26.5711H112.312V24.0554H115.047V20.8934L117.623 20.1086V24.0554H121.293V26.5711H117.623V34.0261C117.623 34.7416 117.76 35.1801 118.033 35.4571C118.512 35.9187 119.446 35.8725 120.837 35.8033L121.27 35.7802V38.1344H121.202C120.541 38.2498 119.925 38.296 119.355 38.296ZM112.517 26.3865H115.252V34.0261C115.252 35.5263 115.617 36.5649 116.346 37.2343C117.258 38.0421 118.785 38.2959 121.133 37.9959V35.9879L120.883 36.011C119.446 36.0802 118.489 36.1264 117.942 35.5956C117.623 35.2955 117.463 34.7877 117.463 34.0261V26.3865H121.133V24.24H117.463V20.3625L115.252 21.0319V24.24H112.517V26.3865Z" fill="white"/>
<path d="M43.0606 50.944C42.5591 50.944 42.1716 50.7593 41.898 50.3901V50.8517H41.2598V46.2356H41.898V47.9897C42.1716 47.6204 42.5591 47.4358 43.0606 47.4358C43.5165 47.4358 43.904 47.5973 44.2459 47.9435C44.5651 48.2897 44.7246 48.7052 44.7246 49.1899C44.7246 49.6746 44.5651 50.09 44.2459 50.4362C43.9268 50.7593 43.5165 50.944 43.0606 50.944ZM41.8069 50.09L41.898 50.2285C42.1716 50.6439 42.5591 50.8517 43.0606 50.8517C43.4937 50.8517 43.8812 50.6901 44.1776 50.367C44.4739 50.0439 44.6335 49.6515 44.6335 49.1899C44.6335 48.7283 44.4739 48.3359 44.1776 48.0128C43.8812 47.6897 43.4937 47.5281 43.0606 47.5281C42.5591 47.5281 42.1488 47.7358 41.898 48.1513L41.8069 48.2897V46.3279H41.3509V50.7593H41.8069V50.09ZM42.9922 50.3901C42.6503 50.3901 42.3767 50.2747 42.1488 50.0439C41.9208 49.8131 41.8069 49.513 41.8069 49.1899C41.8069 48.8437 41.9208 48.5667 42.1488 48.3359C42.3767 48.1051 42.6503 47.9897 42.9922 47.9897C43.3341 47.9897 43.6077 48.1051 43.8356 48.3359C44.0636 48.5667 44.1776 48.8437 44.1776 49.1899C44.1776 49.5361 44.0636 49.8131 43.8356 50.0439C43.6077 50.2747 43.3113 50.3901 42.9922 50.3901ZM42.9922 48.082C42.6731 48.082 42.4223 48.1974 42.2172 48.4051C42.012 48.6129 41.898 48.8668 41.898 49.1899C41.898 49.513 41.9892 49.7669 42.2172 49.9746C42.4223 50.1823 42.6731 50.2977 42.9922 50.2977C43.2885 50.2977 43.5621 50.1823 43.7672 49.9746C43.9724 49.7438 44.0864 49.4899 44.0864 49.1899C44.0864 48.8668 43.9952 48.6129 43.7672 48.4051C43.5621 48.1743 43.2885 48.082 42.9922 48.082Z" fill="white"/>
<path d="M47.2779 52.1443C47.2551 52.1443 47.2095 52.1443 47.1867 52.1443H47.1411V51.5211H47.1867C47.5515 51.5442 47.825 51.3365 48.0074 50.8979L48.053 50.7825L46.6396 47.5051H47.3235L48.3721 49.9516L49.2611 47.5051H49.945L48.6228 51.0133C48.3721 51.7519 47.8934 52.1443 47.2779 52.1443ZM47.2323 52.052C47.825 52.075 48.3037 51.7057 48.5544 50.9903L49.831 47.6205H49.3295L48.3721 50.2286L47.2551 47.6205H46.7536L48.1213 50.8056L48.053 50.9441C47.8706 51.4057 47.5743 51.6365 47.1867 51.6365V52.052H47.2323Z" fill="white"/>
<path d="M57.5358 50.8517H55.7578V46.2356H57.5358C58.1513 46.2356 58.6756 46.4664 59.0859 46.9049C59.4962 47.3435 59.7014 47.8974 59.7014 48.5436C59.7014 49.1899 59.4962 49.7438 59.0859 50.1823C58.6756 50.6209 58.1513 50.8517 57.5358 50.8517ZM55.8262 50.7593H57.513C58.1057 50.7593 58.6072 50.5516 58.9947 50.1131C59.3823 49.6746 59.5874 49.1437 59.5874 48.5436C59.5874 47.9205 59.3823 47.3896 58.9947 46.9742C58.6072 46.5356 58.1057 46.3279 57.513 46.3279H55.8262V50.7593ZM57.5358 50.2747H56.3505V46.7895H57.5358C58.0145 46.7895 58.4021 46.9511 58.6984 47.2973C58.9947 47.6204 59.1543 48.0589 59.1543 48.5436C59.1543 49.0283 58.9947 49.4438 58.6984 49.79C58.3793 50.1131 57.9917 50.2747 57.5358 50.2747ZM56.4189 50.1823H57.513C57.9462 50.1823 58.3109 50.0208 58.6072 49.7207C58.8808 49.3976 59.0403 49.0052 59.0403 48.5436C59.0403 48.082 58.9036 47.6897 58.6072 47.3665C58.3337 47.0434 57.9689 46.9049 57.513 46.9049H56.4189V50.1823Z" fill="white"/>
<path d="M62.8013 50.8517H62.1631V47.5281H62.8013V47.9435C63.0065 47.6204 63.3256 47.4819 63.7587 47.4819H63.8043V48.1743H63.7587C63.4852 48.1513 63.2801 48.2205 63.0977 48.3821C62.9153 48.5436 62.8241 48.7744 62.8241 49.1206V50.8517H62.8013ZM62.2315 50.7593H62.6874V49.0976C62.6874 48.7283 62.7786 48.4513 63.0065 48.2897C63.2117 48.1282 63.4168 48.0589 63.6904 48.0589V47.5743C63.2573 47.5973 62.9609 47.782 62.7786 48.1513L62.6874 48.3359V47.6204H62.2315V50.7593Z" fill="white"/>
<path d="M66.7679 50.8516H66.1296V47.528H66.7679V50.8516ZM66.2208 50.7593H66.6767V47.6204H66.2208V50.7593ZM66.4487 47.228C66.2208 47.228 66.0156 47.0433 66.0156 46.8125C66.0156 46.5817 66.198 46.374 66.4487 46.374C66.6767 46.374 66.859 46.5587 66.859 46.8125C66.859 47.0203 66.6767 47.228 66.4487 47.228ZM66.4487 46.4663C66.2664 46.4663 66.1068 46.6279 66.1068 46.8125C66.1068 46.9972 66.2664 47.1357 66.4487 47.1357C66.6311 47.1357 66.7679 46.9972 66.7679 46.8125C66.7679 46.6048 66.6311 46.4663 66.4487 46.4663Z" fill="white"/>
<path d="M70.0504 52.1442H69.4121V47.5281H70.0504V47.9897C70.3239 47.6204 70.7114 47.4358 71.2129 47.4358C71.6688 47.4358 72.0564 47.5974 72.3983 47.9436C72.7174 48.2898 72.877 48.7052 72.877 49.1899C72.877 49.6746 72.7174 50.09 72.3983 50.4362C72.0791 50.7824 71.6916 50.944 71.2129 50.944C70.7114 50.944 70.3239 50.7594 70.0504 50.3901V52.1442ZM69.5033 52.0519H69.9592V50.09L70.0504 50.2285C70.3239 50.644 70.7114 50.8517 71.2129 50.8517C71.646 50.8517 72.0336 50.6901 72.3299 50.367C72.6262 50.0439 72.7858 49.6515 72.7858 49.1899C72.7858 48.7283 72.6262 48.3359 72.3299 48.0128C72.0336 47.6897 71.646 47.5281 71.2129 47.5281C70.7114 47.5281 70.3011 47.7358 70.0504 48.1513L69.9592 48.2898V47.6204H69.5033V52.0519ZM71.1445 50.3901C70.8026 50.3901 70.5291 50.2747 70.3011 50.0439C70.0732 49.8131 69.9592 49.513 69.9592 49.1899C69.9592 48.8437 70.0732 48.5667 70.3011 48.3359C70.5291 48.1051 70.8026 47.9897 71.1445 47.9897C71.4865 47.9897 71.76 48.1051 71.988 48.3359C72.2159 48.5667 72.3299 48.8437 72.3299 49.1899C72.3299 49.5361 72.2159 49.8131 71.988 50.0439C71.76 50.2747 71.4637 50.3901 71.1445 50.3901ZM71.1445 48.082C70.8254 48.082 70.5747 48.1974 70.3695 48.4052C70.1644 48.6129 70.0504 48.8668 70.0504 49.1899C70.0504 49.513 70.1416 49.7669 70.3695 49.9746C70.5747 50.1824 70.8254 50.2978 71.1445 50.2978C71.4409 50.2978 71.7144 50.1824 71.9196 49.9746C72.1247 49.7438 72.2387 49.4899 72.2387 49.1899C72.2387 48.8668 72.1475 48.6129 71.9196 48.4052C71.7144 48.1744 71.4409 48.082 71.1445 48.082Z" fill="white"/>
<path d="M82.2907 50.8517H81.6069V48.8206H79.5325V50.8517H78.8486V46.2356H79.5325V48.1513H81.6069V46.2356H82.2907V50.8517ZM81.698 50.7593H82.1995V46.3279H81.698V48.2436H79.4413V46.3279H78.9398V50.7593H79.4413V48.7283H81.698V50.7593Z" fill="white"/>
<path d="M85.232 52.1443C85.2092 52.1443 85.1636 52.1443 85.1408 52.1443H85.0952V51.5211H85.1408C85.5056 51.5442 85.7791 51.3365 85.9615 50.8979L86.0071 50.7825L84.5938 47.5051H85.2776L86.3262 49.9516L87.2152 47.5051H87.8991L86.5769 51.0133C86.3262 51.7519 85.8247 52.1443 85.232 52.1443ZM85.1864 52.052C85.7791 52.075 86.2578 51.7057 86.5085 50.9903L87.7851 47.6205H87.2836L86.3262 50.2286L85.2092 47.6205H84.7077L86.0754 50.8056L86.0071 50.9441C85.8247 51.4057 85.5283 51.6365 85.1408 51.6365V52.052H85.1864Z" fill="white"/>
<path d="M91.6367 50.944C91.1808 50.944 90.7705 50.7824 90.4514 50.4362C90.1322 50.09 89.9727 49.6746 89.9727 49.1899C89.9727 48.7052 90.1322 48.2897 90.4514 47.9435C90.7705 47.5973 91.1808 47.4358 91.6367 47.4358C92.1382 47.4358 92.5257 47.6204 92.7993 47.9897V46.2356H93.4375V50.8517H92.7993V50.3901C92.5257 50.7593 92.1154 50.944 91.6367 50.944ZM91.6367 47.5281C91.2036 47.5281 90.8389 47.6897 90.5197 48.0128C90.2234 48.3359 90.0638 48.7283 90.0638 49.1899C90.0638 49.6515 90.2234 50.0439 90.5197 50.367C90.8161 50.6901 91.2036 50.8517 91.6367 50.8517C92.1382 50.8517 92.5485 50.6439 92.7993 50.2285L92.8904 50.09V50.7593H93.3463V46.3279H92.8904V48.2897L92.7993 48.1513C92.5257 47.7358 92.1382 47.5281 91.6367 47.5281ZM91.7051 50.3901C91.386 50.3901 91.0896 50.2747 90.8617 50.0439C90.6337 49.8131 90.5197 49.513 90.5197 49.1899C90.5197 48.8437 90.6337 48.5667 90.8617 48.3359C91.0896 48.1051 91.3632 47.9897 91.7051 47.9897C92.047 47.9897 92.3206 48.1051 92.5485 48.3359C92.7765 48.5667 92.8904 48.8437 92.8904 49.1899C92.8904 49.5361 92.7765 49.8131 92.5485 50.0439C92.3206 50.2747 92.047 50.3901 91.7051 50.3901ZM91.7051 48.082C91.386 48.082 91.1352 48.1974 90.9301 48.4051C90.7249 48.6129 90.6109 48.8668 90.6109 49.1899C90.6109 49.513 90.7021 49.7669 90.9301 49.9746C91.1352 50.1823 91.386 50.2977 91.7051 50.2977C92.0242 50.2977 92.275 50.2054 92.4801 49.9746C92.6853 49.7438 92.7993 49.4899 92.7993 49.1899C92.7993 48.8668 92.7081 48.6129 92.4801 48.4051C92.275 48.1743 92.0242 48.082 91.7051 48.082Z" fill="white"/>
<path d="M96.7203 50.8517H96.082V47.5281H96.7203V47.9435C96.9255 47.6204 97.2446 47.4819 97.6777 47.4819H97.7233V48.1743H97.6777C97.4041 48.1513 97.199 48.2205 97.0166 48.3821C96.8343 48.5436 96.7431 48.7744 96.7431 49.1206V50.8517H96.7203ZM96.1504 50.7593H96.6063V49.0976C96.6063 48.7283 96.6975 48.4513 96.9255 48.2897C97.1306 48.1282 97.3586 48.0589 97.6093 48.0589V47.5743C97.1762 47.5973 96.8799 47.782 96.6975 48.1513L96.6063 48.3359V47.6204H96.1504V50.7593Z" fill="white"/>
<path d="M101.348 50.944C100.892 50.944 100.481 50.7824 100.162 50.4362C99.8432 50.09 99.6836 49.6746 99.6836 49.1899C99.6836 48.7052 99.8432 48.2898 100.162 47.9436C100.481 47.5974 100.892 47.4358 101.348 47.4358C101.849 47.4358 102.237 47.6204 102.51 47.9897V47.5281H103.148V50.8517H102.51V50.3901C102.237 50.7594 101.849 50.944 101.348 50.944ZM101.348 47.5281C100.915 47.5281 100.55 47.6897 100.231 48.0128C99.9343 48.3359 99.7748 48.7283 99.7748 49.1899C99.7748 49.6515 99.9343 50.0439 100.231 50.367C100.527 50.6901 100.915 50.8517 101.348 50.8517C101.849 50.8517 102.259 50.644 102.51 50.2285L102.601 50.09V50.7594H103.057V47.6204H102.601V48.2898L102.51 48.1513C102.259 47.7358 101.872 47.5281 101.348 47.5281ZM101.416 50.3901C101.097 50.3901 100.801 50.2747 100.573 50.0439C100.345 49.8131 100.231 49.513 100.231 49.1899C100.231 48.8437 100.345 48.5667 100.573 48.3359C100.801 48.1051 101.074 47.9897 101.416 47.9897C101.758 47.9897 102.032 48.1051 102.259 48.3359C102.487 48.5667 102.601 48.8437 102.601 49.1899C102.601 49.5361 102.487 49.8131 102.259 50.0439C102.032 50.2747 101.758 50.3901 101.416 50.3901ZM101.416 48.082C101.097 48.082 100.846 48.1974 100.641 48.4052C100.436 48.6129 100.322 48.8668 100.322 49.1899C100.322 49.513 100.413 49.7669 100.641 49.9746C100.846 50.1824 101.097 50.2978 101.416 50.2978C101.735 50.2978 101.986 50.2054 102.191 49.9746C102.396 49.7438 102.51 49.4899 102.51 49.1899C102.51 48.8668 102.419 48.6129 102.191 48.4052C101.986 48.1744 101.735 48.082 101.416 48.082Z" fill="white"/>
<path d="M107.138 50.8748C106.796 50.8748 106.568 50.8056 106.385 50.644C106.203 50.4825 106.112 50.2286 106.112 49.8593V48.1514H105.474V47.5051H106.112V46.7896L106.75 46.605V47.5282H107.594V48.1744H106.75V49.8824C106.75 50.044 106.773 50.1363 106.841 50.2055C106.955 50.2978 107.16 50.2978 107.48 50.2748H107.616V50.8748H107.571C107.411 50.8748 107.274 50.8748 107.138 50.8748ZM105.588 48.0821H106.226V49.8824C106.226 50.2286 106.317 50.4594 106.477 50.5979C106.682 50.7825 107.024 50.8287 107.548 50.7594V50.344H107.525C107.183 50.3671 106.955 50.3671 106.819 50.2517C106.727 50.1824 106.705 50.044 106.705 49.8593V48.059H107.548V47.5974H106.682V46.6973L106.226 46.8358V47.5744H105.588V48.0821Z" fill="white"/>
<path d="M110.74 50.8516H110.102V47.528H110.74V50.8516ZM110.17 50.7593H110.626V47.6204H110.17V50.7593ZM110.398 47.228C110.17 47.228 109.965 47.0433 109.965 46.8125C109.965 46.5817 110.147 46.374 110.398 46.374C110.626 46.374 110.808 46.5587 110.808 46.8125C110.831 47.0203 110.649 47.228 110.398 47.228ZM110.398 46.4663C110.216 46.4663 110.056 46.6279 110.056 46.8125C110.056 46.9972 110.216 47.1357 110.398 47.1357C110.58 47.1357 110.717 46.9972 110.717 46.8125C110.74 46.6048 110.58 46.4663 110.398 46.4663Z" fill="white"/>
<path d="M114.911 50.944C114.432 50.944 114.022 50.7824 113.68 50.4362C113.338 50.09 113.179 49.6746 113.179 49.1899C113.179 48.7052 113.338 48.2898 113.68 47.9436C114.022 47.5974 114.432 47.4358 114.911 47.4358C115.39 47.4358 115.8 47.5974 116.142 47.9436C116.484 48.2898 116.644 48.7052 116.644 49.1899C116.644 49.6746 116.484 50.09 116.142 50.4362C115.8 50.7594 115.39 50.944 114.911 50.944ZM114.911 47.5281C114.455 47.5281 114.068 47.6897 113.749 48.0128C113.429 48.3359 113.27 48.7283 113.27 49.1899C113.27 49.6515 113.429 50.0439 113.749 50.367C114.068 50.6901 114.455 50.8517 114.911 50.8517C115.367 50.8517 115.755 50.6901 116.074 50.367C116.393 50.0439 116.552 49.6515 116.552 49.1899C116.552 48.7283 116.393 48.3359 116.074 48.0128C115.755 47.6897 115.367 47.5281 114.911 47.5281ZM114.911 50.3901C114.592 50.3901 114.296 50.2747 114.091 50.0439C113.863 49.8131 113.749 49.5361 113.749 49.1899C113.749 48.8437 113.863 48.5667 114.091 48.3359C114.318 48.1051 114.592 47.9897 114.911 47.9897C115.23 47.9897 115.527 48.1051 115.755 48.3359C115.983 48.5667 116.096 48.8437 116.096 49.1899C116.096 49.5361 115.983 49.8131 115.755 50.0439C115.527 50.2747 115.23 50.3901 114.911 50.3901ZM114.911 48.082C114.615 48.082 114.341 48.1974 114.136 48.4052C113.931 48.6129 113.817 48.8668 113.817 49.1899C113.817 49.513 113.908 49.7669 114.136 49.9746C114.341 50.1824 114.592 50.2978 114.911 50.2978C115.207 50.2978 115.481 50.1824 115.686 49.9746C115.891 49.7669 116.005 49.513 116.005 49.1899C116.005 48.8668 115.914 48.6129 115.686 48.4052C115.481 48.1974 115.207 48.082 114.911 48.082Z" fill="white"/>
<path d="M122.001 50.8517H121.363V48.8437C121.363 48.3359 121.089 48.059 120.61 48.059C120.04 48.059 119.721 48.4282 119.721 49.0745V50.8286H119.083V47.505H119.721V47.8743C119.949 47.5743 120.291 47.4358 120.701 47.4358C121.477 47.4358 121.978 47.9666 121.978 48.8206V50.8517H122.001ZM121.454 50.7594H121.91V48.8206C121.91 48.0359 121.431 47.5281 120.724 47.5281C120.268 47.5281 119.949 47.6897 119.721 48.059L119.63 48.1974V47.6204H119.174V50.7594H119.63V49.0976C119.63 48.3821 119.995 47.9897 120.61 47.9897C121.135 47.9897 121.454 48.3128 121.454 48.8668V50.7594Z" fill="white"/>
<path d="M15.2728 46.5357C6.86136 46.5357 0 39.6116 0 31.0718C0 28.3484 0.706652 25.6941 2.02877 23.363L13.5632 1.09049C13.7911 0.675044 14.1558 0.374999 14.5889 0.236517C15.0448 0.0749549 15.5007 0.121116 15.9339 0.351919C16.3442 0.559642 16.6405 0.928927 16.7773 1.39053C16.9141 1.85214 16.8685 2.31375 16.6633 2.72919L4.67302 25.8788C3.89798 27.4944 3.48767 29.2947 3.48767 31.0718C3.48767 37.6497 8.77616 43.0044 15.2728 43.0044C21.7694 43.0044 27.0579 37.6497 27.0579 31.0718C27.0579 29.2254 26.6248 27.379 25.8042 25.7403L25.7586 25.648L25.3483 24.8632L19.7862 14.177L11.8991 29.0408C11.5116 29.7793 11.352 30.4487 11.3748 31.2103C11.3748 31.2796 11.3748 31.3257 11.3748 31.395C11.5344 33.3106 13.0845 34.857 14.9765 34.9955C16.0706 35.0647 17.1192 34.6955 17.917 33.9569C18.5553 33.3337 18.9656 32.5721 19.1024 31.695C19.2392 30.841 19.9458 30.2179 20.7892 30.2179H20.8804C21.3819 30.2179 21.8378 30.4256 22.1797 30.818C22.4989 31.1872 22.6356 31.695 22.5673 32.2028C22.3165 33.8646 21.5187 35.4109 20.3105 36.565C18.9428 37.8575 17.142 38.573 15.2728 38.573C15.0904 38.573 14.9309 38.573 14.7485 38.5499C11.1469 38.296 8.20628 35.3648 7.90994 31.7412C7.90994 31.6258 7.88715 31.5104 7.88715 31.4181C7.84155 30.1486 8.22907 28.6484 8.89013 27.379L19.7862 6.62977L28.5168 23.3861C29.8389 25.7172 30.5456 28.3714 30.5456 31.0718C30.5456 39.6116 23.6842 46.5357 15.2728 46.5357ZM15.1132 0.328839C14.9537 0.328839 14.7941 0.351919 14.6573 0.39808C14.2698 0.513481 13.9279 0.790445 13.7455 1.18281L2.21114 23.4553C0.889014 25.7634 0.205157 28.4176 0.205157 31.0949C0.205157 39.5192 6.97534 46.3741 15.2956 46.3741C23.6158 46.3741 30.386 39.5192 30.386 31.0949C30.386 28.4176 29.7022 25.8095 28.38 23.5015L19.7862 7.02214L9.0497 27.4713C8.41144 28.6946 8.02392 30.1717 8.06951 31.3257C8.06951 31.4411 8.06951 31.5335 8.0923 31.6489C8.38864 35.2032 11.2608 38.0652 14.7713 38.296C14.9309 38.3191 15.1132 38.3191 15.2956 38.3191C17.1192 38.3191 18.8744 37.6267 20.1966 36.3572C21.3819 35.2494 22.1569 33.7261 22.4077 32.1105C22.4761 31.6719 22.3393 31.2334 22.0658 30.8872C21.7694 30.541 21.3591 30.3564 20.9032 30.3564H20.812C20.0598 30.3564 19.4215 30.9103 19.3075 31.6719C19.1708 32.5951 18.7377 33.403 18.0538 34.0492C17.2104 34.8339 16.139 35.2263 14.9765 35.1571C12.9933 34.9955 11.3748 33.3799 11.2152 31.395C11.2152 31.3257 11.2152 31.2796 11.2152 31.2103C11.1925 30.4025 11.352 29.7101 11.7623 28.9485L19.809 13.7847L25.9638 25.5787L26.0093 25.671C26.83 27.3559 27.2859 29.2254 27.2859 31.0949C27.2859 37.7651 21.9062 43.2121 15.3184 43.2121C8.73057 43.2121 3.3509 37.7651 3.3509 31.0949C3.3509 29.2485 3.78401 27.379 4.58184 25.7172L4.62743 25.6249L16.5265 2.63687C16.7317 2.26759 16.7545 1.82906 16.6405 1.43669C16.5265 1.04433 16.253 0.698124 15.8655 0.513481C15.6147 0.39808 15.364 0.328839 15.1132 0.328839Z" fill="white"/>
<path d="M48.9189 18.5623C51.5404 18.5623 53.7059 19.5085 55.4383 21.4011C57.1708 23.2706 58.0598 25.5787 58.0598 28.3252C58.0598 31.0718 57.1708 33.3798 55.4383 35.2724C53.7059 37.1419 51.5176 38.0882 48.9189 38.0882H41.3965V18.5623H48.9189ZM48.9189 35.6186C50.8793 35.6186 52.4978 34.9262 53.7287 33.5183C54.9596 32.1335 55.5979 30.4025 55.5979 28.3022C55.5979 26.2018 54.9596 24.4708 53.7287 23.086C52.4978 21.7012 50.8565 20.9857 48.9189 20.9857H43.9723V35.5955H48.9189V35.6186Z" fill="#5E3A95"/>
<path d="M63.3255 26.4788C64.1233 24.7478 65.5594 23.8938 67.611 23.8938V26.4326C66.4256 26.3865 65.4454 26.6865 64.5792 27.3789C63.7358 28.0713 63.3027 29.1561 63.3027 30.7025V38.0882H60.9092V24.1477H63.3027V26.4788H63.3255Z" fill="#5E3A95"/>
<path d="M69.5488 20.8011C69.5488 19.9009 70.2555 19.1624 71.1673 19.1624C72.0563 19.1624 72.763 19.924 72.763 20.8011C72.763 21.7012 72.0563 22.4167 71.1673 22.4167C70.2555 22.4167 69.5488 21.6781 69.5488 20.8011ZM69.9591 38.0882V24.1477H72.3526V38.0882H69.9591Z" fill="#5E3A95"/>
<path d="M88.537 25.9248C89.882 27.3558 90.5658 29.0868 90.5658 31.1179C90.5658 33.1489 89.882 34.903 88.537 36.334C87.1921 37.765 85.5281 38.4574 83.6133 38.4574C81.3338 38.4574 79.6013 37.5342 78.416 35.6878V43.6736H76.0225V24.1476H78.416V26.548C79.6013 24.7015 81.3338 23.7783 83.6133 23.7783C85.5509 23.7783 87.1921 24.4938 88.537 25.9248ZM86.7818 34.6722C87.7164 33.7029 88.1951 32.5258 88.1951 31.0948C88.1951 29.6638 87.7164 28.5098 86.7818 27.5635C85.8472 26.5941 84.6846 26.1094 83.3169 26.1094C81.9036 26.1094 80.7639 26.5941 79.8293 27.5635C78.8947 28.5098 78.416 29.6869 78.416 31.0948C78.416 32.5258 78.8947 33.6798 79.8293 34.6722C80.7639 35.6185 81.9264 36.1032 83.3169 36.1032C84.6846 36.1032 85.8472 35.6185 86.7818 34.6722Z" fill="#5E3A95"/>
<path d="M104.79 21.0088H96.2415V27.3328H104.425V29.7793H96.2415V38.0651H93.6885V18.5623H104.79V21.0088Z" fill="#5E3A95"/>
<path d="M107.252 20.8011C107.252 19.9009 107.959 19.1624 108.87 19.1624C109.759 19.1624 110.466 19.924 110.466 20.8011C110.466 21.7012 109.759 22.4167 108.87 22.4167C107.959 22.4167 107.252 21.6781 107.252 20.8011ZM107.662 38.0882V24.1477H110.056V38.0882H107.662Z" fill="#5E3A95"/>
<path d="M121.202 26.4788H117.532V34.026C117.532 36.1725 118.74 36.0109 121.202 35.8955V38.0651C117.008 38.619 115.139 37.4881 115.139 34.026V26.4788H112.403V24.1476H115.139V20.9626L117.532 20.2471V24.1476H121.202V26.4788Z" fill="#5E3A95"/>
<path d="M28.4481 23.4322L19.7859 6.8374L8.95816 27.4481C8.2971 28.6945 7.93237 30.1716 7.97797 31.3487C7.97797 31.4641 7.97797 31.5564 8.00076 31.6718C8.2971 35.2724 11.1921 38.1574 14.7481 38.4113C14.9305 38.4344 15.0901 38.4344 15.2724 38.4344C17.1188 38.4344 18.8969 37.7189 20.2418 36.4495C21.4499 35.3185 22.225 33.7952 22.4757 32.1334C22.5441 31.6718 22.4073 31.1872 22.111 30.841C21.8147 30.4717 21.3588 30.2639 20.8801 30.2639H20.8117C20.0138 30.2639 19.3528 30.864 19.216 31.6718C19.0792 32.572 18.6689 33.3567 17.9851 34.003C17.1644 34.7646 16.0931 35.157 14.9761 35.0877C13.0385 34.9493 11.4428 33.3798 11.2833 31.418C11.2833 31.3487 11.2833 31.3026 11.2833 31.2333C11.2605 30.4486 11.42 29.7562 11.8076 29.0176L19.7631 14.0154L25.4163 24.8631L25.8266 25.6479L25.8722 25.7402C26.6928 27.402 27.1259 29.2484 27.1259 31.1179C27.1259 37.742 21.7919 43.1428 15.2496 43.1428C8.70741 43.1428 3.37333 37.742 3.37333 31.1179C3.37333 29.2715 3.80644 27.4251 4.60427 25.7864L16.5718 2.68294C16.7769 2.29057 16.8225 1.82897 16.6857 1.41352C16.5718 0.974995 16.2754 0.62879 15.8879 0.421067C15.5004 0.213344 15.0445 0.190264 14.6114 0.305665C14.2011 0.444147 13.8591 0.744192 13.654 1.13656L2.11959 23.4091C0.797472 25.7402 0.0908203 28.3944 0.0908203 31.0718C0.0908203 39.5422 6.90659 46.4433 15.2724 46.4433C23.6383 46.4433 30.454 39.5422 30.454 31.0718C30.454 28.3944 29.7702 25.7402 28.4481 23.4322Z" fill="#5E3A95"/>
</svg>
