<svg width="48" height="48" viewBox="0 0 48 48" fill="none" xmlns="http://www.w3.org/2000/svg">
<path d="M0 24C0 10.7452 10.7452 0 24 0C37.2548 0 48 10.7452 48 24C48 37.2548 37.2548 48 24 48C10.7452 48 0 37.2548 0 24Z" fill="#A351A3"/>
<path fill-rule="evenodd" clip-rule="evenodd" d="M26.3558 14.0079C26.1328 13.976 25.9087 14.0419 25.7304 14.1838C25.5472 14.3277 25.4326 14.5356 25.4077 14.7684C25.355 15.2391 25.6946 15.6648 26.1646 15.7178C29.4063 16.0795 31.9259 18.6048 32.2904 21.8565C32.3392 22.2922 32.7047 22.621 33.1409 22.621C33.1738 22.621 33.2057 22.619 33.2385 22.615C33.4666 22.59 33.6697 22.4771 33.8132 22.2972C33.9556 22.1174 34.0203 21.8935 33.9944 21.6647C33.5403 17.6075 30.4002 14.4586 26.3558 14.0079ZM26.4183 17.49C25.9422 17.4021 25.505 17.7059 25.4144 18.1705C25.3238 18.6352 25.6285 19.0889 26.0916 19.1798C27.4859 19.4517 28.5624 20.5309 28.8353 21.93V21.931C28.913 22.3337 29.2675 22.6265 29.6759 22.6265C29.7306 22.6265 29.7854 22.6215 29.8412 22.6115C30.3043 22.5185 30.609 22.0659 30.5184 21.6002C30.1111 19.5106 28.5027 17.8967 26.4183 17.49ZM28.0001 27.0905C28.4515 26.8302 28.9615 26.5362 29.6047 26.673C30.1873 26.7959 32.1731 28.4078 32.7169 28.9665C33.0734 29.3322 33.2716 29.7099 33.3025 30.0877C33.3562 31.5697 31.3425 33.2615 30.976 33.4724C30.489 33.8231 29.9224 34 29.286 34C28.6357 34 27.9107 33.8151 27.1199 33.4464C22.8296 31.6556 16.2755 25.231 14.5427 20.9739C13.8236 19.389 13.8186 18.0819 14.5307 17.0996C14.8145 16.6389 16.4329 14.7132 17.8819 14.7742C18.2673 14.8072 18.6418 15.005 19.0093 15.3648C19.565 15.9094 21.1365 17.9011 21.258 18.4857C21.3925 19.1352 21.0977 19.6519 20.8358 20.1055C20.7799 20.2031 20.7046 20.3188 20.6222 20.4456C20.3092 20.9268 19.8926 21.5674 20.04 21.9763C21.0967 24.5705 23.5376 26.8339 26.133 27.8972C26.5343 28.0431 27.1745 27.6235 27.6542 27.3092C27.7791 27.2273 27.8932 27.1525 27.9893 27.0967L28.0001 27.0905Z" fill="white"/>
</svg>
