<svg width="41" height="41" viewBox="0 0 41 41" fill="none" xmlns="http://www.w3.org/2000/svg">
<circle cx="20.9213" cy="20.0826" r="20.0787" fill="#5E3A95"/>
<path d="M26.3317 6.69678H15.5109C11.1132 6.69678 7.53546 10.2745 7.53546 14.6722V25.493C7.53546 29.8907 11.1132 33.4684 15.5109 33.4684H26.3317C30.7294 33.4684 34.3071 29.8907 34.3071 25.493V14.6722C34.3071 10.2745 30.7293 6.69678 26.3317 6.69678ZM31.6139 25.493C31.6139 28.4103 29.2489 30.7752 26.3317 30.7752H15.5109C12.5936 30.7752 10.2287 28.4103 10.2287 25.493V14.6722C10.2287 11.7549 12.5936 9.39 15.5109 9.39H26.3317C29.2489 9.39 31.6139 11.7549 31.6139 14.6722V25.493Z" fill="white"/>
<path d="M20.9213 13.1584C17.1033 13.1584 13.9972 16.2646 13.9972 20.0825C13.9972 23.9004 17.1033 27.0066 20.9213 27.0066C24.7393 27.0066 27.8454 23.9005 27.8454 20.0825C27.8454 16.2645 24.7393 13.1584 20.9213 13.1584ZM20.9213 24.3134C18.5846 24.3134 16.6904 22.4192 16.6904 20.0826C16.6904 17.7459 18.5847 15.8517 20.9213 15.8517C23.258 15.8517 25.1522 17.7459 25.1522 20.0826C25.1522 22.4192 23.2579 24.3134 20.9213 24.3134Z" fill="white"/>
<path d="M27.8588 14.8696C28.7751 14.8696 29.518 14.1268 29.518 13.2104C29.518 12.2941 28.7751 11.5513 27.8588 11.5513C26.9425 11.5513 26.1996 12.2941 26.1996 13.2104C26.1996 14.1268 26.9425 14.8696 27.8588 14.8696Z" fill="white"/>
</svg>
