<svg width="179" height="48" viewBox="0 0 179 48" fill="none" xmlns="http://www.w3.org/2000/svg">
<path d="M16.8383 10.839C16.8726 10.7984 16.8954 10.7462 16.9869 10.6187C17.1356 10.4158 17.1927 10.2882 17.1813 10.2186C17.1756 10.178 17.1641 10.1665 17.0727 10.0215C17.0212 9.94614 16.9755 9.86496 16.924 9.78959C16.8211 9.63885 16.478 9.07067 15.9749 8.30536C15.9463 8.27637 15.8892 8.18941 15.8091 8.11403C15.7977 8.10244 15.7062 8.03866 15.5976 8.03287C15.4203 8.02707 15.2774 8.18941 15.2317 8.24159C14.7057 8.85035 8.86818 18.121 7.13009 20.585C6.84994 20.9793 6.26105 21.791 5.70646 23.0143C5.39772 23.7043 4.80883 25.0319 4.64302 26.8524C4.59728 27.3742 4.47149 29.1426 5.129 31.2877C6.00376 34.1402 7.70183 35.8506 8.17637 36.3086C8.79957 36.9058 10.1603 38.0711 12.1557 38.7727C15.2088 39.851 19.4225 39.7293 22.8072 37.1145C23.0817 36.9058 26.8894 33.8619 27.181 28.9106C27.3183 26.5857 26.6264 24.7594 26.1633 23.5303C25.786 22.5389 25.2943 21.5417 22.5385 17.6108C21.6866 16.3991 20.5317 14.7757 19.1138 12.8682C19.0394 12.7697 18.948 12.6479 18.8336 12.5261C18.5763 12.2478 18.4906 12.2421 18.4448 12.2421C18.3248 12.2421 18.2276 12.3464 18.1876 12.4102C17.8903 12.903 17.7073 13.2045 17.5472 13.5002C17.2613 14.0278 14.9744 17.7789 10.1489 25.2696C10.126 25.3044 10.046 25.4436 10.0002 25.5537C9.74295 26.1335 9.34273 27.5366 9.66862 29.2527C9.76581 29.7687 10.1603 31.7052 11.8984 33.1024C14.5742 35.2534 17.9017 34.0765 18.0618 34.0185C18.5763 33.8272 20.0457 33.201 21.0977 31.6356C22.3899 29.7165 22.4356 27.3047 21.7838 25.6233C21.5837 25.1131 21.1549 24.4174 20.2916 23.0259C19.7427 22.1388 19.2453 21.4373 18.9137 20.9329C18.8679 20.8633 18.8222 20.8054 18.7707 20.7242C18.6621 20.5676 18.6106 20.4923 18.5535 20.4749C18.3648 20.4227 18.0846 20.9619 17.7244 21.5533C17.5586 21.8258 17.3185 22.22 16.9983 22.6954C17.7816 23.9941 18.7421 25.2001 19.3539 26.5915C19.5254 26.9858 20.1143 28.615 18.8851 30.2847C18.0503 31.4153 16.6724 31.9545 15.3517 31.7516C13.6994 31.5022 12.6074 30.1688 12.2758 28.9396C11.9727 27.8381 12.2872 26.8524 12.4015 26.4814C12.5845 25.8958 12.8132 25.5711 13.4021 24.6609C13.9338 23.8318 14.4198 22.9679 14.9687 22.1504C15.649 21.13 16.6896 19.4951 18.2562 16.8165C18.3191 16.7237 18.4105 16.6136 18.5249 16.6136C18.6507 16.6078 18.7536 16.7353 18.7936 16.7817C22.6643 21.6808 23.6648 24.1159 23.6648 24.1159C24.0136 24.9682 24.1908 25.3972 24.288 25.7741C25.0256 28.6324 24.0136 31.0674 23.8306 31.4848C22.7329 34.0185 20.7775 35.2476 20.0571 35.6535C19.5769 35.9201 16.4037 37.6305 12.7789 36.2332C10.2175 35.2476 8.8739 33.2764 8.33075 32.3023C7.95912 31.6414 7.0329 29.7977 7.18727 27.3278C7.32448 25.0609 8.30216 23.4491 8.75384 22.7302C9.02256 22.3012 9.23981 22.0229 9.44564 21.7562C12.3672 17.9355 16.5124 11.2622 16.8383 10.839Z" fill="#181C32"/>
<path d="M38.5012 8.91406C43.1666 8.91406 45.1563 11.7492 45.1563 15.222C45.1563 18.6949 43.1666 21.53 38.5012 21.53H34.8535V8.91986H38.5012V8.91406ZM43.9728 15.222C43.9728 12.4681 42.6235 10.0098 38.5184 10.0098H35.9913V20.4342H38.5184C42.6235 20.4342 43.9728 17.976 43.9728 15.222Z" fill="#181C32"/>
<path d="M61.2965 21.4722H59.9472L56.3795 16.26H53.7667V21.4722H52.6289V8.86206H56.4824C59.1582 8.86206 60.3188 10.584 60.3188 12.561C60.3188 14.2656 59.4669 15.7324 57.5802 16.1325L61.2965 21.4722ZM59.1811 12.561C59.1811 11.2565 58.5407 9.89406 56.4882 9.89406H53.7724V15.2338H56.4882C58.5407 15.228 59.1811 13.8829 59.1811 12.561Z" fill="#181C32"/>
<path d="M69.8682 8.91406V21.5242H68.7305V8.91406H69.8682Z" fill="#181C32"/>
<path d="M82.6914 9.09985C85.3672 9.09985 86.5278 10.9261 86.5278 12.9032C86.5278 14.8976 85.3672 16.7065 82.6914 16.7065H79.9756V21.71H78.8379V9.09985H82.6914ZM85.3843 12.909C85.3843 11.6045 84.744 10.1319 82.6914 10.1319H79.9756V15.6803H82.6914C84.744 15.6803 85.3843 14.2309 85.3843 12.909Z" fill="#181C32"/>
<path d="M36.3233 26.8757V32.343H43.7445V26.8757H44.8823V39.4859H43.7445V33.3692H36.3233V39.4859H35.1855V26.8757H36.3233Z" fill="#181C32"/>
<path d="M52.0117 26.7192H53.3153L57.2717 33.1953L61.2282 26.7192H62.4746L57.8092 34.2679V39.3352H56.6714V34.2679L52.0117 26.7192Z" fill="#181C32"/>
<path d="M73.0852 26.7017C77.7506 26.7017 79.7403 29.5368 79.7403 33.0096C79.7403 36.4767 77.7506 39.3176 73.0852 39.3176H69.4375V26.7075H73.0852V26.7017ZM78.5568 33.0096C78.5568 30.2557 77.2074 27.7974 73.1024 27.7974H70.5753V38.2218H73.1024C77.2074 38.2218 78.5568 35.7636 78.5568 33.0096Z" fill="#181C32"/>
<path d="M96.0875 39.4278H94.7382L91.1705 34.2156H88.5577V39.4278H87.4199V26.8176H91.2735C93.9492 26.8176 95.1098 28.5396 95.1098 30.5166C95.1098 32.2211 94.2579 33.688 92.3712 34.088L96.0875 39.4278ZM93.9721 30.5166C93.9721 29.2121 93.3317 27.8496 91.2792 27.8496H88.5634V33.1894H91.2792C93.3317 33.1836 93.9721 31.8385 93.9721 30.5166Z" fill="#181C32"/>
<path d="M103.389 39.5957H102.205L107.345 26.9856H108.277L113.417 39.5957H112.176L110.684 35.9374H104.858L103.389 39.5957ZM107.762 28.7075L105.275 34.9111H110.272L107.762 28.7075Z" fill="#181C32"/>
<path d="M117.848 27.7337V26.7017H127.859V27.7337H123.422V39.3176H122.284V27.7337H117.848Z" fill="#181C32"/>
<path d="M136.475 26.9856V39.5957H135.337V26.9856H136.475Z" fill="#181C32"/>
<path d="M150.368 26.7251C154.016 26.7251 156.732 29.5022 156.732 33.3462C156.732 37.2133 154.016 39.9672 150.368 39.9672C146.698 39.9672 144.005 37.2133 144.005 33.3462C144.005 29.5022 146.698 26.7251 150.368 26.7251ZM150.368 27.7977C147.361 27.7977 145.188 30.024 145.188 33.3462C145.188 36.6683 147.367 38.8946 150.368 38.8946C153.33 38.8946 155.548 36.6683 155.548 33.3462C155.548 30.0298 153.33 27.7977 150.368 27.7977Z" fill="#181C32"/>
<path d="M165.501 26.7595L173.025 37.039V26.7595H174.1V39.3697H173.311L165.787 29.0902V39.3697H164.712V26.7595H165.501Z" fill="#181C32"/>
</svg>
