<svg width="40" height="40" viewBox="0 0 40 40" fill="none" xmlns="http://www.w3.org/2000/svg">
<circle cx="20" cy="20" r="20" fill="#A351A3"/>
<path d="M30.2366 28.0772C30.4098 28.7995 30.5757 29.4903 30.7699 30.2998C30.2586 30.0058 29.8019 29.8053 29.4177 29.5103C27.7725 28.2462 25.9457 27.8588 23.8817 27.9964C21.7409 28.1391 19.5824 28.0247 17.4312 28.0247C16.7677 28.0247 16.1493 27.8893 15.617 27.462C15.0122 26.9769 14.7634 26.3417 14.7844 25.4987C15.007 25.4987 15.2096 25.4987 15.4112 25.4987C19.3808 25.5008 23.3504 25.5092 27.319 25.4997C28.7626 25.4966 29.467 24.7732 29.4723 23.3286C29.4796 21.1774 29.4744 19.0272 29.4733 16.876C29.4733 16.686 29.4733 16.4949 29.4733 16.3143C30.8592 15.8954 31.9563 16.6072 31.9752 17.991C32.0109 20.6482 32.0057 23.3065 31.9752 25.9638C31.9626 27.1649 31.4849 27.7045 30.2366 28.0772Z" fill="white"/>
<path d="M28.3247 13.7567C28.3258 13.069 28.0633 12.499 27.5793 12.0244C26.9966 11.4522 26.2901 11.236 25.4806 11.2381C20.7908 11.2475 16.102 11.2402 11.4122 11.2412C11.1329 11.2412 10.8505 11.2475 10.5744 11.2832C8.94285 11.4921 8.00215 12.542 8.0011 14.1662C7.999 16.878 8.0242 19.5909 8.00425 22.3028C7.9969 23.212 8.41791 23.7999 9.18852 24.1684C9.57698 24.3542 10.0011 24.4634 10.4473 24.6209C10.1954 25.591 9.94339 26.5663 9.65257 27.6887C11.3219 26.706 12.8663 25.781 14.4295 24.8918C14.7298 24.7206 15.1109 24.6115 15.4553 24.6094C18.7099 24.5884 21.9645 24.601 25.2192 24.5915C25.6538 24.5905 26.0969 24.5621 26.5221 24.4771C27.678 24.243 28.3142 23.5038 28.3195 22.3658C28.3331 19.4954 28.3226 16.6261 28.3247 13.7567ZM13.1581 18.8203C12.4978 18.8098 11.9203 18.2198 11.9298 17.5646C11.9382 16.9043 12.5303 16.3237 13.1833 16.3342C13.8448 16.3447 14.4211 16.9347 14.4106 17.5888C14.4001 18.2513 13.8101 18.8308 13.1581 18.8203ZM18.1629 18.8214C17.4994 18.8161 16.9325 18.2376 16.9367 17.5709C16.9409 16.9043 17.5099 16.3352 18.1755 16.3331C18.8306 16.331 19.4018 16.9148 19.3986 17.5835C19.3955 18.2544 18.8233 18.8266 18.1629 18.8214ZM23.173 18.8203C22.5147 18.8224 21.9299 18.2397 21.9278 17.5814C21.9257 16.9221 22.5031 16.3384 23.1635 16.3342C23.8197 16.33 24.4034 16.9116 24.4076 17.572C24.4118 18.2292 23.8291 18.8182 23.173 18.8203Z" fill="white"/>
</svg>
