<svg width="48" height="48" viewBox="0 0 48 48" fill="none" xmlns="http://www.w3.org/2000/svg">
<rect width="48" height="48" rx="8" fill="#A351A3"/>
<path fill-rule="evenodd" clip-rule="evenodd" d="M23.1771 32.2928C23.2321 32.6922 23.5795 33 23.9999 33C24.4585 33 24.8302 32.6337 24.8302 32.1818L24.8302 17.8001L30.0813 22.9953L30.1743 23.0747C30.4989 23.313 30.9602 23.2876 31.2556 22.9977C31.5805 22.6788 31.5816 22.1608 31.258 21.8406L24.5996 15.2523C24.5614 15.213 24.5194 15.1776 24.474 15.1464C24.1498 14.9234 23.6999 14.9548 23.4111 15.2407L16.7419 21.8407L16.6617 21.9326C16.4213 22.2534 16.449 22.7079 16.7445 22.9977C17.0694 23.3166 17.5951 23.3155 17.9187 22.9953L23.1696 17.7988L23.1696 32.1818L23.1771 32.2928Z" fill="white"/>
</svg>
