<svg width="40" height="40" viewBox="0 0 40 40" fill="none" xmlns="http://www.w3.org/2000/svg">
<circle cx="20" cy="20" r="20" fill="#A351A3"/>
<path fill-rule="evenodd" clip-rule="evenodd" d="M19.1771 28.2928C19.2321 28.6922 19.5795 29 19.9999 29C20.4585 29 20.8302 28.6337 20.8302 28.1818V13.8001L26.0813 18.9953L26.1743 19.0747C26.4989 19.313 26.9602 19.2876 27.2556 18.9977C27.5805 18.6788 27.5816 18.1608 27.258 17.8406L20.5996 11.2523C20.5614 11.213 20.5194 11.1776 20.474 11.1464C20.1498 10.9234 19.6999 10.9548 19.4111 11.2407L12.7419 17.8407L12.6617 17.9326C12.4213 18.2534 12.449 18.7079 12.7445 18.9977C13.0694 19.3166 13.5951 19.3155 13.9187 18.9953L19.1696 13.7988V28.1818L19.1771 28.2928Z" fill="white"/>
</svg>
