<svg width="21" height="26" viewBox="0 0 21 26" fill="none" xmlns="http://www.w3.org/2000/svg">
<path fill-rule="evenodd" clip-rule="evenodd" d="M10.0884 0.904785C6.41258 0.904785 3.43273 3.89733 3.43273 7.58883C3.43273 11.2803 6.41258 14.2729 10.0884 14.2729C13.7642 14.2729 16.7441 11.2803 16.7441 7.58883C16.7441 3.89733 13.7642 0.904785 10.0884 0.904785ZM10.0883 2.71835C12.7667 2.71835 14.9379 4.89888 14.9379 7.58871C14.9379 10.2785 12.7667 12.4591 10.0883 12.4591C7.40984 12.4591 5.23856 10.2785 5.23856 7.58871C5.23856 4.89888 7.40984 2.71835 10.0883 2.71835ZM7.36491 16.9672C6.39056 17.0348 5.40569 17.1739 4.43423 17.3821C2.55922 17.7683 1.05919 18.54 0.420728 19.8223C0.17992 20.3238 0.0588498 20.8608 0.0608927 21.4045C0.0601703 21.9442 0.18026 22.4818 0.412433 22.9737C1.02547 24.2413 2.35079 24.9587 4.14037 25.3563L4.46095 25.4232C5.40603 25.6364 6.3912 25.78 7.38297 25.8474C7.46743 25.8721 7.66875 25.8952 7.88848 25.9064L8.06921 25.9132C8.16214 25.9153 8.2676 25.9159 8.42474 25.9159C9.85026 25.9943 11.3281 25.9714 12.799 25.8462C13.5829 25.7926 14.372 25.6901 15.1546 25.5399L15.7401 25.4183C17.6726 25.0371 19.1196 24.3121 19.7535 22.9751C20.2235 21.9825 20.2235 20.8306 19.7537 19.8385C19.1214 18.5048 17.6928 17.7859 15.7254 17.3806C14.9535 17.2158 14.1692 17.0939 13.3793 17.016L12.8017 16.9672C10.9929 16.8076 9.1737 16.8076 7.36491 16.9672ZM12.6435 18.7739L12.6594 18.7751C13.566 18.839 14.4671 18.9662 15.3561 19.156C16.8174 19.457 17.8091 19.9561 18.1228 20.6178C18.3591 21.1167 18.3591 21.6964 18.1226 22.1958C17.8295 22.8141 16.9388 23.2917 15.6515 23.5836L15.3696 23.6433C14.4632 23.8456 13.5651 23.9759 12.6611 24.0379C11.2584 24.1572 9.86401 24.1787 8.47315 24.1035L7.98003 24.0951C7.84314 24.0881 7.72777 24.0749 7.62086 24.0534C6.77426 23.9895 6.01247 23.8884 5.2728 23.7418L4.83116 23.6483C3.3653 23.361 2.36485 22.8597 2.04047 22.1891C1.92697 21.9485 1.86634 21.6771 1.86671 21.4022C1.86569 21.129 1.92552 20.8636 2.04166 20.6216C2.35705 19.9884 3.41727 19.443 4.80398 19.1573C5.69935 18.9654 6.59998 18.8382 7.50618 18.7752C9.22642 18.6236 10.9399 18.6236 12.6435 18.7739Z" fill="white"/>
</svg>
