<svg width="41" height="41" viewBox="0 0 41 41" fill="none" xmlns="http://www.w3.org/2000/svg">
<path d="M0.228333 20.0826C0.228333 8.99346 9.21789 0.00390625 20.3071 0.00390625C31.3963 0.00390625 40.3858 8.99346 40.3858 20.0826C40.3858 31.1718 31.3963 40.1614 20.3071 40.1614C9.21789 40.1614 0.228333 31.1718 0.228333 20.0826Z" fill="#5E3A95"/>
<path d="M30.5681 15.1242C30.3218 14.178 29.5961 13.4329 28.6745 13.18C27.0045 12.7205 20.307 12.7205 20.307 12.7205C20.307 12.7205 13.6096 12.7205 11.9394 13.18C11.0179 13.4329 10.2921 14.178 10.0458 15.1242C9.59839 16.8391 9.59839 20.4173 9.59839 20.4173C9.59839 20.4173 9.59839 23.9954 10.0458 25.7104C10.2921 26.6566 11.0179 27.4017 11.9394 27.6547C13.6096 28.1142 20.307 28.1142 20.307 28.1142C20.307 28.1142 27.0045 28.1142 28.6745 27.6547C29.5961 27.4017 30.3218 26.6566 30.5681 25.7104C31.0157 23.9954 31.0157 20.4173 31.0157 20.4173C31.0157 20.4173 31.0157 16.8391 30.5681 15.1242Z" fill="white"/>
<path d="M18.2992 24.0984V17.4055L23.6535 20.7521L18.2992 24.0984Z" fill="#5E3A95"/>
</svg>
