<svg width="41" height="41" viewBox="0 0 41 41" fill="none" xmlns="http://www.w3.org/2000/svg">
<g clip-path="url(#clip0_4_1319)">
<rect x="3.12402" y="12.7639" width="32.628" height="14.036" fill="white"/>
<path fill-rule="evenodd" clip-rule="evenodd" d="M18.5399 0.0988353C11.0741 0.918145 4.6609 5.9414 1.94365 13.0981C0.277923 17.4854 0.173811 22.4163 1.65166 26.929C3.84139 33.6153 9.31354 38.6949 16.0879 40.3298C17.7621 40.7338 18.6527 40.8323 20.6606 40.8356C22.2478 40.8382 22.6157 40.8181 23.5103 40.6801C27.8948 40.0034 31.806 38.0216 34.843 34.9376C38.1591 31.5701 40.1624 27.3111 40.6813 22.5248C40.8743 20.7448 40.7508 18.2285 40.3786 16.3569C38.6409 7.62063 31.4976 1.02568 22.7666 0.096744C21.5955 -0.0278558 19.686 -0.0269114 18.5399 0.0988353ZM14.5443 14.7335C15.1317 14.911 15.5708 15.5889 15.4543 16.1386C15.3532 16.6152 15.105 16.967 11.0196 22.4236L10.0599 23.7054L12.4941 23.7391C14.8866 23.7722 14.9323 23.7754 15.172 23.9272C15.6658 24.2398 15.8629 25.1476 15.5412 25.6287C15.2612 26.0475 15.0978 26.1204 14.316 26.176C13.3453 26.2448 9.36357 26.2425 8.29654 26.1724C7.33879 26.1094 7.03089 26.0032 6.72154 25.6289C6.41437 25.2574 6.40456 24.5811 6.69854 24.0456C6.8892 23.6985 9.86505 19.7092 11.4563 17.6676C11.5576 17.5378 11.6703 17.3504 11.7068 17.2511L11.7732 17.0707L9.73886 17.0487L7.7046 17.0267L7.32918 16.8476C6.88735 16.6368 6.73473 16.4299 6.69278 15.9852C6.62995 15.32 6.91783 14.9286 7.60891 14.7395C8.15015 14.5914 14.0574 14.5863 14.5443 14.7335ZM25.766 14.7837C25.9821 14.8946 26.1019 15.0166 26.2108 15.2365L26.3599 15.5375V20.315C26.3599 24.4817 26.3468 25.1247 26.257 25.3434C26.0966 25.7344 25.8518 25.9506 25.4715 26.0372C24.7991 26.1904 24.2088 25.8422 24.0495 25.1984C23.9568 24.8234 23.9458 15.9507 24.0376 15.5478C24.1637 14.9945 24.596 14.6319 25.1297 14.6319C25.3512 14.6319 25.5738 14.685 25.766 14.7837ZM19.6078 17.9365C19.8041 17.9731 20.2034 18.1249 20.4951 18.2738C20.7867 18.4228 21.0664 18.5446 21.1166 18.5446C21.1668 18.5446 21.3215 18.44 21.4605 18.3123C21.9806 17.8339 22.7549 17.9466 23.206 18.5664C23.3422 18.7535 23.3446 18.8142 23.3446 22.0526C23.3446 25.2909 23.3422 25.3516 23.206 25.5387C22.7542 26.1594 22.0099 26.2678 21.453 25.7942C21.3019 25.6657 21.1374 25.5605 21.0874 25.5605C21.0374 25.5605 20.8091 25.6643 20.58 25.7911C20.0265 26.0975 19.5381 26.2351 19.0038 26.2351C17.5387 26.2351 16.2148 25.1571 15.6479 23.5023C15.4811 23.0155 15.4632 22.875 15.4632 22.0526C15.4632 21.2301 15.4811 21.0896 15.6479 20.6028C16.303 18.6908 17.8967 17.6177 19.6078 17.9365ZM32.1809 18.0828C33.3877 18.4583 34.2524 19.3277 34.6869 20.6022C34.8527 21.0887 34.8709 21.2316 34.8709 22.0526C34.8709 22.8743 34.8529 23.0158 34.6869 23.5004C34.1049 25.1989 32.6719 26.2328 30.8995 26.2328C29.7868 26.2328 28.9148 25.8715 28.1439 25.091C27.2534 24.1894 26.9097 23.2192 26.9744 21.7901C27.0428 20.2814 27.6681 19.1632 28.8451 18.4446C29.7633 17.884 31.0822 17.741 32.1809 18.0828ZM18.7482 20.3093C18.1631 20.6041 17.8426 21.3158 17.8911 22.2122C17.9508 23.3127 18.5249 23.9445 19.461 23.94C19.7523 23.9386 20.1803 23.7792 20.398 23.591C21.1199 22.967 21.1616 21.3496 20.4748 20.6128C20.043 20.1496 19.318 20.0222 18.7482 20.3093ZM30.3031 20.2718C29.9713 20.4554 29.6902 20.7702 29.5335 21.1339C29.323 21.6226 29.3223 22.4871 29.532 22.9633C29.808 23.5899 30.2848 23.9371 30.8731 23.94C31.493 23.943 31.957 23.662 32.2425 23.1109C32.4067 22.7939 32.4238 22.6941 32.4238 22.0526C32.4238 21.3849 32.412 21.3229 32.2181 20.9732C32.0998 20.7598 31.8939 20.5166 31.7334 20.4009C31.496 20.2296 31.3835 20.1968 30.9782 20.1807C30.6348 20.167 30.4464 20.1925 30.3031 20.2718Z" fill="#5E3A95"/>
</g>
<defs>
<clipPath id="clip0_4_1319">
<rect width="40.1575" height="40.8319" fill="white" transform="translate(0.614136 0.00390625)"/>
</clipPath>
</defs>
</svg>
