<svg width="48" height="48" viewBox="0 0 48 48" fill="none" xmlns="http://www.w3.org/2000/svg">
<g clip-path="url(#clip0_294_240)">
<rect x="3" y="15" width="39" height="16.5" fill="white"/>
<path fill-rule="evenodd" clip-rule="evenodd" d="M21.4266 0.111594C12.5027 1.07474 4.83707 6.97984 1.58916 15.3929C-0.401873 20.5504 -0.526317 26.347 1.24015 31.6519C3.85752 39.512 10.3983 45.4833 18.4957 47.4051C20.4969 47.8801 21.5614 47.9959 23.9614 47.9998C25.8585 48.0028 26.2983 47.9792 27.3676 47.817C32.6084 47.0215 37.2834 44.6918 40.9135 41.0663C44.8773 37.1077 47.2718 32.1011 47.8921 26.4745C48.1228 24.382 47.9751 21.4239 47.5302 19.2238C45.4531 8.95386 36.9148 1.20115 26.4787 0.109136C25.0789 -0.037338 22.7965 -0.0362277 21.4266 0.111594ZM16.6506 17.3154C17.3528 17.5241 17.8776 18.321 17.7383 18.9671C17.6175 19.5275 17.3209 19.941 12.4376 26.3555L11.2905 27.8623L14.2 27.9019C17.0598 27.9409 17.1145 27.9447 17.4009 28.123C17.9912 28.4905 18.2267 29.5577 17.8422 30.1232C17.5075 30.6155 17.3122 30.7013 16.3777 30.7666C15.2175 30.8476 10.4581 30.8448 9.18273 30.7624C8.03794 30.6884 7.66991 30.5635 7.30014 30.1235C6.93299 29.6868 6.92126 28.8918 7.27265 28.2623C7.50055 27.8542 11.0576 23.1646 12.9596 20.7646C13.0807 20.612 13.2153 20.3916 13.259 20.275L13.3384 20.0629L10.9067 20.0371L8.47519 20.0112L8.02645 19.8006C7.49833 19.5528 7.31591 19.3096 7.26576 18.7868C7.19067 18.0049 7.53477 17.5447 8.36081 17.3224C9.00775 17.1484 16.0686 17.1423 16.6506 17.3154ZM30.0639 17.3744C30.3221 17.5048 30.4654 17.6481 30.5956 17.9067L30.7738 18.2605V23.8768C30.7738 28.7749 30.758 29.5308 30.6508 29.7879C30.459 30.2475 30.1664 30.5017 29.7119 30.6035C28.9082 30.7836 28.2025 30.3742 28.0122 29.6174C27.9014 29.1766 27.8882 18.7463 27.9979 18.2727C28.1487 17.6222 28.6654 17.196 29.3033 17.196C29.568 17.196 29.8341 17.2584 30.0639 17.3744ZM22.7031 21.0807C22.9377 21.1237 23.415 21.3021 23.7636 21.4772C24.1121 21.6523 24.4465 21.7956 24.5064 21.7956C24.5665 21.7956 24.7514 21.6726 24.9175 21.5225C25.5392 20.9601 26.4647 21.0926 27.0039 21.8212C27.1667 22.0412 27.1696 22.1125 27.1696 25.9193C27.1696 29.7262 27.1667 29.7975 27.0039 30.0175C26.4639 30.7471 25.5742 30.8746 24.9086 30.3178C24.728 30.1668 24.5313 30.0431 24.4716 30.0431C24.4119 30.0431 24.139 30.1651 23.8651 30.3142C23.2035 30.6744 22.6196 30.8362 21.9811 30.8362C20.2298 30.8362 18.6474 29.5689 17.9698 27.6236C17.7704 27.0513 17.749 26.8862 17.749 25.9193C17.749 24.9525 17.7704 24.7874 17.9698 24.2151C18.7528 21.9674 20.6577 20.7059 22.7031 21.0807ZM37.7316 21.2527C39.174 21.6941 40.2077 22.7161 40.727 24.2143C40.9252 24.7863 40.9469 24.9542 40.9469 25.9193C40.9469 26.8853 40.9253 27.0516 40.7269 27.6214C40.0313 29.6181 38.3184 30.8334 36.1999 30.8334C34.8699 30.8334 33.8276 30.4087 32.9062 29.4912C31.8418 28.4314 31.4309 27.2908 31.5083 25.6109C31.59 23.8372 32.3374 22.5227 33.7443 21.678C34.8418 21.019 36.4183 20.8509 37.7316 21.2527ZM21.6755 23.8701C20.9762 24.2166 20.593 25.0533 20.6511 26.1071C20.7224 27.4007 21.4086 28.1434 22.5276 28.1381C22.8757 28.1364 23.3873 27.949 23.6475 27.7279C24.5104 26.9943 24.5603 25.093 23.7393 24.2268C23.2233 23.6824 22.3566 23.5325 21.6755 23.8701ZM35.487 23.826C35.0904 24.0418 34.7545 24.4119 34.5672 24.8394C34.3155 25.4139 34.3147 26.4301 34.5654 26.9899C34.8953 27.7265 35.4652 28.1348 36.1683 28.1381C36.9093 28.1417 37.464 27.8114 37.8052 27.1635C38.0014 26.7908 38.0219 26.6735 38.0219 25.9193C38.0219 25.1345 38.0078 25.0616 37.776 24.6505C37.6346 24.3997 37.3885 24.1138 37.1967 23.9777C36.9129 23.7763 36.7784 23.7378 36.294 23.7188C35.8836 23.7028 35.6584 23.7327 35.487 23.826Z" fill="#A351A3"/>
</g>
<defs>
<clipPath id="clip0_294_240">
<rect width="48" height="48" fill="white"/>
</clipPath>
</defs>
</svg>
